<svg id="svg" version="1.1" xmlns="http://www.w3.org/2000/svg" xmlns:xlink="http://www.w3.org/1999/xlink" width="400" height="261.42857142857144" viewBox="0, 0, 400,261.42857142857144"><g id="svgg"><path id="path0" d="M194.379 25.281 C 191.788 25.394,178.695 26.649,177.268 26.921 C 173.247 27.687,168.789 28.388,165.621 28.754 C 159.913 29.412,157.737 30.164,149.673 34.265 C 145.791 36.239,141.261 38.407,139.608 39.082 C 129.977 43.016,125.179 46.285,116.991 54.497 C 111.160 60.343,108.697 64.724,105.885 74.248 C 104.446 79.125,104.571 78.180,103.488 92.418 C 102.884 100.360,103.151 110.912,104.086 116.078 C 106.322 128.441,109.176 133.611,116.993 139.466 C 126.867 146.861,133.282 150.296,141.438 152.554 C 142.804 152.933,145.098 153.632,146.536 154.109 C 147.974 154.585,149.680 155.054,150.327 155.151 C 154.499 155.777,161.720 157.236,165.752 158.268 C 171.462 159.730,174.847 160.022,187.451 160.143 C 193.562 160.201,201.323 160.387,204.698 160.557 C 214.110 161.029,224.900 160.633,234.379 159.467 C 236.680 159.184,239.974 158.952,241.699 158.951 C 244.494 158.949,250.022 158.430,255.686 157.639 C 258.740 157.212,260.868 156.947,266.939 156.239 C 280.950 154.606,286.658 151.469,291.972 142.484 C 299.846 129.171,300.825 112.601,294.728 95.817 C 291.677 87.417,291.094 85.997,288.892 81.606 C 287.908 79.644,286.845 77.275,286.530 76.340 C 284.705 70.919,281.317 66.491,271.111 56.183 C 259.372 44.327,252.802 39.211,244.967 35.823 C 243.889 35.357,242.654 34.817,242.222 34.623 C 234.655 31.222,226.268 28.676,217.778 27.203 C 215.980 26.891,213.745 26.468,212.810 26.263 C 208.063 25.222,202.496 24.925,194.379 25.281 M200.791 42.762 C 201.796 45.406,200.387 50.980,198.713 50.980 C 197.302 50.980,197.105 50.181,197.813 47.337 C 198.809 43.341,200.199 41.205,200.791 42.762 M185.478 48.608 C 185.802 49.132,187.451 53.978,187.451 54.405 C 187.451 54.847,185.985 55.948,185.397 55.948 C 184.864 55.948,183.268 51.802,183.268 50.415 C 183.268 49.113,184.944 47.743,185.478 48.608 M128.717 49.908 C 128.119 50.849,120.575 59.445,120.242 59.564 C 120.109 59.612,120.000 59.131,120.000 58.495 C 120.000 55.115,125.388 49.150,128.441 49.150 L 129.198 49.150 128.717 49.908 M216.870 49.423 C 216.962 49.573,216.852 50.249,216.625 50.926 C 214.481 57.312,214.255 57.778,213.299 57.778 C 212.550 57.778,211.938 56.614,212.092 55.485 C 212.544 52.182,215.924 47.893,216.870 49.423 M248.473 54.591 C 255.323 57.083,259.757 62.765,258.436 67.360 C 256.935 72.581,253.664 74.025,249.673 71.227 C 242.609 66.275,239.810 66.232,233.333 70.974 C 228.304 74.657,225.047 75.014,223.259 72.081 C 222.411 70.691,222.738 66.573,223.904 63.935 C 226.914 57.129,240.864 51.823,248.473 54.591 M161.850 58.947 C 167.132 59.692,169.544 61.210,171.627 65.098 C 174.913 71.232,167.279 76.329,161.452 71.892 C 157.833 69.136,154.161 68.956,148.660 71.266 C 145.120 72.753,144.446 72.941,142.674 72.941 C 139.795 72.941,139.026 72.022,139.053 68.608 C 139.103 62.057,150.291 57.315,161.850 58.947 M117.556 63.407 C 117.710 63.810,116.001 66.667,115.605 66.667 C 115.169 66.667,114.771 66.008,114.771 65.287 C 114.771 63.858,117.120 62.272,117.556 63.407 M199.170 72.299 L 199.059 75.619 198.095 76.503 C 196.544 77.924,196.349 77.644,196.343 73.973 C 196.339 71.468,197.122 69.342,198.240 68.825 C 199.178 68.391,199.286 68.795,199.170 72.299 M113.696 71.710 C 113.258 72.560,112.377 73.464,111.986 73.464 C 111.531 73.464,111.227 72.186,111.556 71.659 C 112.309 70.452,114.320 70.500,113.696 71.710 M242.328 80.583 C 245.346 81.643,247.223 84.114,247.844 87.843 C 248.024 88.922,248.272 90.072,248.395 90.399 C 248.860 91.630,249.630 98.319,250.463 108.358 C 251.379 119.392,242.838 129.349,235.513 125.786 C 229.111 122.671,226.405 107.863,229.262 91.569 C 230.850 82.510,235.849 78.307,242.328 80.583 M159.897 84.699 C 164.890 86.963,165.490 89.031,165.490 103.971 L 165.490 113.755 164.551 116.028 C 160.454 125.937,159.291 127.452,155.294 128.082 C 144.048 129.856,140.900 116.065,147.041 91.931 C 148.812 84.971,154.027 82.038,159.897 84.699 M181.138 85.848 C 183.024 88.649,183.235 89.997,181.935 90.958 C 180.876 91.741,180.728 91.640,179.824 89.535 C 178.213 85.778,179.208 82.984,181.138 85.848 M214.438 85.377 C 214.972 87.255,213.423 90.998,211.771 91.825 C 210.494 92.464,210.279 92.127,210.687 90.131 C 211.493 86.191,213.828 83.231,214.438 85.377 M125.805 87.582 C 127.855 91.764,128.075 93.483,126.628 94.038 C 125.553 94.450,123.660 90.960,123.660 88.566 C 123.660 86.359,124.922 85.780,125.805 87.582 M270.328 87.454 C 271.187 90.056,270.458 92.809,268.678 93.685 C 266.858 94.581,266.511 93.607,267.555 90.536 C 268.847 86.737,269.757 85.725,270.328 87.454 M120.249 96.844 C 120.687 97.482,121.046 98.081,121.046 98.177 C 121.046 98.272,121.264 98.663,121.531 99.045 C 121.798 99.426,122.323 100.293,122.697 100.970 L 123.377 102.202 122.699 102.735 C 120.346 104.586,116.725 99.330,118.429 96.536 C 119.104 95.428,119.297 95.461,120.249 96.844 M198.663 97.350 C 199.682 98.578,199.588 102.785,198.513 104.063 C 197.132 105.704,196.260 104.320,196.510 100.887 C 196.755 97.538,197.628 96.103,198.663 97.350 M282.213 109.571 C 282.775 112.626,282.599 113.706,281.322 115.049 C 279.441 117.026,278.596 116.289,279.408 113.380 C 279.697 112.348,280.199 110.533,280.525 109.346 C 281.303 106.519,281.661 106.567,282.213 109.571 M131.891 108.124 C 132.795 109.099,134.896 113.430,134.715 113.945 C 134.453 114.694,133.322 116.078,132.973 116.078 C 131.872 116.078,129.459 108.277,130.392 107.733 C 131.060 107.344,131.202 107.381,131.891 108.124 M120.105 122.222 C 121.712 125.503,121.434 128.410,119.627 127.226 C 118.146 126.256,116.708 121.850,117.485 120.664 C 118.279 119.453,118.942 119.847,120.105 122.222 M269.804 123.276 C 269.804 125.953,266.201 130.654,265.199 129.285 C 263.994 127.636,266.844 122.353,268.939 122.353 C 269.755 122.353,269.804 122.405,269.804 123.276 M284.327 127.167 C 284.614 128.696,282.923 133.320,281.940 133.697 C 279.226 134.739,280.136 129.415,283.107 126.864 C 284.013 126.087,284.130 126.116,284.327 127.167 M256.846 150.308 C 257.453 150.979,257.175 151.792,256.120 152.435 C 254.021 153.715,252.793 152.208,254.455 150.392 C 255.116 149.669,256.232 149.630,256.846 150.308 M250.144 151.948 C 250.685 152.489,250.490 153.120,249.518 153.973 C 248.452 154.909,248.138 154.895,247.582 153.888 C 246.956 152.753,249.228 151.032,250.144 151.948 M243.966 152.851 C 245.102 153.878,244.038 155.413,242.306 155.247 C 241.142 155.135,240.955 154.054,241.932 153.077 C 242.698 152.311,243.296 152.245,243.966 152.851 M108.266 196.309 C 104.435 200.140,104.119 210.161,107.612 217.053 C 110.026 221.817,118.071 226.255,128.366 228.499 C 128.869 228.609,130.693 229.057,132.418 229.494 C 139.610 231.316,142.965 231.793,151.111 232.154 C 158.240 232.469,159.392 232.549,162.222 232.927 C 163.555 233.104,175.457 233.250,195.033 233.328 C 222.486 233.438,231.949 233.584,248.235 234.146 C 253.303 234.321,255.009 234.112,263.399 232.288 C 265.124 231.913,267.081 231.501,267.747 231.371 C 285.080 228.006,293.951 218.401,291.392 205.770 C 289.952 198.664,288.096 197.743,280.261 200.247 C 278.895 200.684,277.425 201.153,276.993 201.290 C 272.635 202.673,268.036 203.429,262.745 203.632 L 258.170 203.807 253.856 206.699 C 242.121 214.568,237.550 217.297,226.405 223.088 C 217.344 227.797,211.504 229.640,201.800 230.853 C 193.719 231.863,191.220 231.103,178.551 223.786 C 176.603 222.661,174.309 221.361,173.452 220.896 C 172.596 220.431,171.601 219.863,171.241 219.633 C 170.430 219.116,170.962 219.427,162.353 214.430 C 158.399 212.134,153.752 209.497,152.026 208.569 C 150.301 207.641,148.048 206.342,147.021 205.682 C 143.481 203.410,143.266 203.340,139.085 203.100 C 129.616 202.558,121.256 200.427,112.641 196.361 C 109.853 195.045,109.534 195.042,108.266 196.309 M113.725 200.225 C 116.124 202.226,116.740 203.350,115.665 203.763 C 113.121 204.739,108.566 200.296,110.629 198.851 C 111.317 198.368,111.707 198.541,113.725 200.225 M243.007 203.831 C 238.231 204.208,227.373 204.778,218.693 205.109 C 207.900 205.519,204.043 205.747,198.431 206.303 C 194.196 206.723,171.994 206.721,166.797 206.301 C 159.733 205.728,154.946 205.621,155.082 206.038 C 155.313 206.750,162.644 211.224,171.765 216.219 C 175.000 217.991,179.177 220.341,181.047 221.441 C 191.556 227.624,194.325 227.782,208.830 223.032 C 212.356 221.877,214.503 220.959,221.661 217.542 C 225.307 215.803,228.329 214.379,228.378 214.379 C 228.426 214.379,229.855 213.727,231.553 212.931 C 233.251 212.134,234.876 211.375,235.163 211.244 C 235.451 211.113,236.696 210.544,237.931 209.979 C 239.166 209.415,242.401 207.986,245.121 206.805 C 251.352 204.098,251.251 204.147,251.087 203.882 C 250.960 203.677,245.405 203.641,243.007 203.831 M285.114 205.000 C 287.750 206.598,288.121 208.627,285.777 208.627 C 284.800 208.627,281.307 206.376,281.307 205.747 C 281.307 204.247,283.244 203.867,285.114 205.000 M111.889 205.386 C 113.518 206.464,113.176 207.843,111.279 207.843 C 110.547 207.843,108.758 205.970,108.758 205.203 C 108.758 204.227,110.271 204.315,111.889 205.386 M280.999 210.375 C 286.107 213.307,286.967 214.172,285.864 215.275 C 284.770 216.369,282.919 215.586,280.203 212.883 C 277.693 210.385,277.637 210.288,278.497 209.943 C 279.411 209.575,279.689 209.623,280.999 210.375 M279.561 217.369 C 280.450 218.007,281.576 218.867,282.065 219.279 L 282.954 220.030 282.486 220.744 C 281.411 222.385,280.658 222.172,277.578 219.357 C 274.510 216.553,276.144 214.915,279.561 217.369 M275.236 222.106 C 275.964 222.616,275.979 223.514,275.275 224.409 C 274.533 225.353,274.403 225.301,273.483 223.694 C 272.544 222.051,272.541 222.035,273.137 221.880 C 274.051 221.641,274.666 221.707,275.236 222.106 " stroke="none" fill="#e39939" fill-rule="evenodd"></path><path id="path1" d="M197.124 21.302 C 191.134 21.854,187.995 22.187,185.882 22.494 C 184.804 22.651,183.216 22.881,182.353 23.006 C 180.396 23.288,173.212 24.460,171.111 24.840 C 170.248 24.996,168.895 25.236,168.105 25.374 C 167.314 25.511,166.137 25.728,165.490 25.856 C 164.843 25.984,163.608 26.227,162.745 26.396 C 161.293 26.681,158.391 27.334,155.556 28.015 C 154.095 28.366,148.480 30.197,147.362 30.687 C 146.908 30.886,145.889 31.314,145.098 31.638 C 143.729 32.198,142.846 32.588,139.412 34.146 C 136.294 35.561,135.506 35.958,133.685 37.030 C 130.506 38.902,124.085 43.353,123.399 44.160 C 123.327 44.245,122.268 45.195,121.046 46.271 C 118.308 48.683,117.878 49.148,115.361 52.418 C 114.254 53.856,112.511 56.033,111.486 57.255 C 108.782 60.481,107.565 62.339,105.917 65.752 C 102.418 72.995,101.312 78.519,100.521 92.680 C 99.523 110.569,100.874 121.614,105.222 131.122 C 106.538 133.997,106.310 134.312,101.836 135.808 C 94.725 138.185,91.223 141.221,88.919 147.006 C 87.658 150.171,89.223 154.179,92.233 155.490 C 93.850 156.194,94.605 156.385,99.281 157.283 C 100.104 157.441,100.037 157.720,98.605 160.112 C 92.374 170.513,94.923 184.642,104.376 192.112 L 106.138 193.504 105.444 194.726 C 101.007 202.540,100.438 206.957,102.918 214.351 C 105.038 220.671,109.730 225.750,114.910 227.330 C 116.079 227.687,117.497 228.198,118.060 228.467 C 118.624 228.735,120.026 229.269,121.176 229.653 C 122.327 230.036,123.533 230.463,123.856 230.600 C 124.180 230.737,124.709 230.962,125.033 231.098 C 126.615 231.768,131.938 233.433,135.163 234.269 C 136.525 234.622,144.776 236.232,148.366 236.845 C 160.695 238.951,164.961 239.427,173.203 239.615 C 176.797 239.697,181.268 239.865,183.137 239.989 C 195.981 240.842,225.612 241.023,230.850 240.281 C 232.072 240.108,234.307 239.792,235.817 239.579 C 237.327 239.366,239.150 239.082,239.869 238.949 C 243.688 238.242,248.500 237.655,250.509 237.651 C 258.409 237.637,265.586 236.354,272.288 233.757 C 273.725 233.200,275.784 232.418,276.863 232.019 C 285.348 228.878,292.192 222.028,294.223 214.641 C 294.322 214.281,294.593 213.340,294.826 212.549 C 295.875 208.980,295.325 203.794,293.498 200.016 C 293.120 199.235,292.810 198.265,292.810 197.861 C 292.810 197.102,292.843 197.064,296.973 193.086 C 302.508 187.755,304.325 183.682,304.510 176.190 C 304.668 169.783,304.228 167.082,302.362 163.003 C 301.430 160.964,301.994 160.000,304.119 160.000 C 304.936 160.000,307.741 158.553,308.975 157.495 C 313.398 153.704,311.943 149.019,305.391 145.953 C 299.036 142.978,297.043 141.991,296.888 141.741 C 296.718 141.464,296.812 141.001,297.776 137.386 C 299.750 129.988,300.068 128.176,300.398 122.484 C 300.532 120.183,300.766 116.595,300.919 114.510 C 301.412 107.774,301.533 100.714,301.182 99.109 C 299.838 92.971,296.007 83.876,290.569 73.923 C 288.819 70.718,289.126 71.088,282.353 64.027 C 265.972 46.951,261.956 42.897,260.858 42.330 C 260.323 42.054,258.970 40.998,257.851 39.984 C 254.281 36.747,249.552 33.920,244.575 32.048 C 243.137 31.507,241.725 30.969,241.438 30.853 C 241.150 30.737,239.503 30.207,237.778 29.676 C 232.832 28.154,231.708 27.741,228.366 26.223 C 226.641 25.439,224.876 24.641,224.444 24.448 C 221.812 23.275,217.604 22.484,214.002 22.484 C 212.445 22.484,210.746 22.371,210.226 22.234 C 205.967 21.108,202.165 20.838,197.124 21.302 M208.366 25.476 C 209.876 25.677,211.935 26.018,212.941 26.233 C 213.948 26.447,215.477 26.750,216.340 26.906 C 217.203 27.062,219.223 27.427,220.830 27.718 C 228.420 29.094,239.720 33.079,248.752 37.566 C 254.042 40.194,260.646 45.672,270.727 55.791 C 281.514 66.619,284.384 70.326,286.533 76.209 C 287.006 77.503,288.182 80.150,289.146 82.092 C 291.288 86.405,293.901 92.977,296.163 99.739 C 299.408 109.440,299.422 123.476,296.197 133.378 C 291.602 147.487,283.228 154.611,269.673 155.944 C 267.717 156.137,262.472 156.775,259.869 157.137 C 258.791 157.287,256.967 157.519,255.817 157.653 C 254.667 157.786,252.549 158.074,251.111 158.292 C 249.673 158.509,246.379 158.755,243.791 158.838 C 241.203 158.920,237.203 159.209,234.902 159.479 C 224.259 160.730,217.236 160.869,191.373 160.342 C 173.911 159.985,170.177 159.667,164.575 158.060 C 163.856 157.854,162.739 157.567,162.092 157.423 C 161.444 157.279,160.386 157.040,159.739 156.892 C 159.092 156.744,157.444 156.437,156.078 156.209 C 150.901 155.345,147.774 154.668,145.752 153.972 C 144.601 153.576,142.542 152.941,141.176 152.559 C 129.929 149.418,114.014 139.168,109.465 132.136 C 103.815 123.403,101.664 105.494,103.924 86.013 C 104.132 84.216,104.305 82.009,104.308 81.110 C 104.316 78.684,106.738 70.372,108.704 66.023 C 113.493 55.426,126.192 44.178,138.830 39.338 C 141.291 38.396,145.684 36.266,151.739 33.080 C 156.600 30.523,160.302 29.281,164.271 28.876 C 165.888 28.711,169.044 28.234,176.340 27.050 C 181.126 26.273,183.685 25.992,189.281 25.627 C 191.654 25.473,194.007 25.309,194.510 25.264 C 197.269 25.016,205.921 25.148,208.366 25.476 M199.627 42.680 C 198.388 44.570,197.168 49.513,197.690 50.523 C 198.113 51.339,199.396 51.112,199.903 50.131 C 201.580 46.890,201.328 40.083,199.627 42.680 M183.969 48.898 C 182.881 49.754,183.090 51.729,184.579 54.647 C 185.267 55.997,185.448 56.063,186.535 55.369 C 187.650 54.656,187.639 54.421,186.313 50.850 C 185.367 48.302,185.056 48.043,183.969 48.898 M126.128 50.067 C 123.141 51.829,120.000 56.202,120.000 58.597 C 120.000 59.153,120.088 59.599,120.196 59.588 C 120.404 59.567,128.611 50.144,128.967 49.518 C 129.372 48.806,127.726 49.124,126.128 50.067 M215.244 49.414 C 213.615 50.070,211.515 55.886,212.433 57.197 C 213.507 58.731,214.367 57.721,215.830 53.206 C 217.178 49.046,217.118 48.659,215.244 49.414 M239.608 54.274 C 230.567 55.875,224.224 60.690,223.107 66.797 C 222.388 70.732,222.737 72.193,224.665 73.323 C 227.011 74.698,228.739 74.221,233.277 70.946 C 239.609 66.376,242.582 66.317,248.908 70.636 C 253.514 73.781,255.740 73.326,257.853 68.811 C 260.059 64.096,257.576 59.464,250.802 55.660 C 247.760 53.951,244.035 53.489,239.608 54.274 M245.393 56.623 C 251.312 59.045,254.092 61.540,255.283 65.498 C 255.480 66.151,255.526 66.760,255.395 66.967 C 255.272 67.161,255.168 67.556,255.163 67.843 C 255.142 69.228,253.016 69.213,251.552 67.818 C 246.553 63.054,238.906 63.186,232.303 68.150 C 228.191 71.241,226.269 71.072,226.279 67.620 C 226.297 61.451,233.547 56.679,243.563 56.245 C 244.013 56.225,244.836 56.396,245.393 56.623 M154.510 58.737 C 142.644 60.616,137.073 65.288,139.491 71.332 C 140.289 73.326,145.033 73.503,147.582 71.634 C 147.914 71.390,151.639 70.204,153.253 69.828 C 156.066 69.173,158.652 69.735,160.916 71.493 C 164.884 74.574,169.079 74.227,171.634 70.607 C 174.163 67.024,169.867 60.443,164.314 59.391 C 160.288 58.628,156.704 58.389,154.510 58.737 M161.973 61.681 C 165.550 62.027,167.344 63.205,168.663 66.073 C 170.854 70.838,168.942 71.258,161.598 67.624 C 157.282 65.489,153.807 65.710,147.582 68.515 C 143.478 70.364,141.961 70.296,141.961 68.262 C 141.961 66.275,144.927 63.600,148.627 62.250 C 150.709 61.491,157.166 61.216,161.973 61.681 M116.157 63.271 C 115.103 63.696,114.412 65.680,115.085 66.353 C 115.590 66.858,115.750 66.746,116.740 65.198 C 117.953 63.302,117.750 62.630,116.157 63.271 M198.270 68.815 C 197.010 69.392,196.471 70.994,196.471 74.161 C 196.471 77.551,196.528 77.668,197.738 76.745 C 198.948 75.822,198.994 75.665,199.149 71.997 C 199.288 68.714,199.199 68.390,198.270 68.815 M111.895 71.373 C 111.608 71.660,111.373 72.021,111.373 72.174 C 111.373 72.604,111.887 73.464,112.143 73.464 C 112.485 73.464,113.991 71.330,113.832 71.072 C 113.580 70.664,112.425 70.843,111.895 71.373 M236.568 80.386 C 230.665 82.558,227.961 90.878,228.325 105.752 C 228.660 119.437,232.245 126.391,238.954 126.369 C 245.327 126.349,251.273 117.226,250.451 108.729 C 250.306 107.235,250.074 104.660,249.934 103.007 C 249.493 97.788,248.893 92.548,248.606 91.418 C 248.453 90.818,248.153 89.386,247.937 88.235 C 246.782 82.061,241.648 78.517,236.568 80.386 M154.248 84.029 C 149.944 84.958,148.133 87.223,146.701 93.464 C 144.664 102.343,144.207 105.765,144.202 112.157 C 144.194 123.706,146.712 128.095,153.352 128.102 C 158.702 128.108,159.821 126.976,163.952 117.386 L 165.359 114.118 165.358 103.399 C 165.356 91.451,165.191 89.937,163.642 87.686 C 161.728 84.904,157.613 83.302,154.248 84.029 M179.257 85.463 C 178.799 86.608,179.001 87.713,180.144 90.295 C 180.772 91.717,181.023 91.767,182.157 90.704 C 183.197 89.729,183.218 89.988,181.889 87.341 C 180.445 84.465,179.832 84.027,179.257 85.463 M212.851 85.353 C 211.451 86.947,209.961 91.382,210.611 92.017 C 211.813 93.190,214.948 88.175,214.485 85.820 C 214.185 84.289,213.865 84.198,212.851 85.353 M238.545 86.150 C 239.874 87.584,239.889 89.970,238.586 92.538 C 236.192 97.255,234.750 98.145,232.908 96.040 C 229.775 92.459,235.341 82.693,238.545 86.150 M123.899 87.102 C 122.874 89.016,125.290 94.663,126.790 93.860 C 128.052 93.185,127.943 92.486,125.860 87.908 C 125.173 86.398,124.437 86.095,123.899 87.102 M268.920 87.480 C 267.195 90.018,266.505 94.406,267.901 93.958 C 270.254 93.203,271.299 90.397,270.325 87.446 C 269.947 86.299,269.719 86.304,268.920 87.480 M155.614 88.356 C 157.574 89.898,157.046 93.426,154.205 97.766 C 151.340 102.142,147.840 97.379,149.985 92.022 C 151.416 88.446,153.775 86.910,155.614 88.356 M118.460 96.555 C 116.796 99.247,120.412 104.533,122.692 102.740 L 123.363 102.212 121.468 99.031 C 119.315 95.415,119.215 95.333,118.460 96.555 M197.467 97.199 C 196.868 97.580,196.601 98.881,196.610 101.390 C 196.622 105.019,197.291 105.721,198.807 103.691 C 200.191 101.837,199.029 96.206,197.467 97.199 M281.038 107.386 C 281.033 107.493,280.740 108.641,280.387 109.935 C 278.689 116.145,278.677 116.464,280.168 115.933 C 282.197 115.210,282.796 113.064,282.084 109.076 C 281.805 107.518,281.080 106.345,281.038 107.386 M130.392 107.733 C 129.749 108.108,129.805 108.503,130.980 111.872 C 132.525 116.301,132.834 116.655,133.915 115.229 C 134.937 113.881,134.921 113.742,133.418 110.850 C 131.715 107.571,131.338 107.183,130.392 107.733 M117.506 120.804 C 116.747 122.272,118.885 127.582,120.235 127.582 C 121.553 127.582,121.461 125.277,120.019 122.200 C 118.855 119.715,118.244 119.376,117.506 120.804 M267.457 122.870 C 266.855 123.472,264.837 127.389,264.837 127.956 C 264.837 128.463,265.393 129.673,265.626 129.673 C 266.855 129.673,269.804 125.214,269.804 123.357 C 269.804 122.160,268.448 121.878,267.457 122.870 M282.789 127.163 C 281.129 128.823,279.655 133.378,280.654 133.762 C 282.263 134.379,284.816 129.776,284.323 127.148 C 284.118 126.053,283.897 126.055,282.789 127.163 M254.577 150.321 C 253.847 150.895,253.494 152.110,253.911 152.614 C 254.529 153.361,256.418 152.662,256.952 151.489 C 257.593 150.084,255.922 149.262,254.577 150.321 M131.329 152.071 C 133.226 153.200,136.255 154.769,136.539 154.770 C 136.648 154.771,137.295 155.018,137.977 155.320 C 141.797 157.013,145.698 158.295,148.497 158.777 C 148.856 158.839,150.033 159.067,151.111 159.285 C 152.190 159.502,154.248 159.869,155.686 160.102 C 157.124 160.334,159.418 160.706,160.784 160.930 C 162.150 161.154,164.268 161.443,165.490 161.573 C 166.712 161.703,169.242 161.977,171.111 162.184 C 172.980 162.390,175.275 162.574,176.209 162.592 C 177.144 162.610,181.614 162.793,186.144 162.998 C 190.673 163.204,197.203 163.445,200.654 163.535 C 204.105 163.624,207.516 163.761,208.235 163.838 C 209.951 164.024,222.071 163.489,227.059 163.008 C 229.216 162.800,232.275 162.504,233.856 162.352 C 237.005 162.047,239.972 161.884,248.105 161.567 C 251.052 161.452,254.935 161.173,256.732 160.947 C 261.125 160.395,265.702 159.759,267.429 159.460 C 269.567 159.091,270.850 159.143,270.850 159.599 C 270.850 159.809,271.187 160.368,271.600 160.841 C 272.983 162.424,277.162 169.412,276.726 169.412 C 276.637 169.412,275.822 168.882,274.916 168.235 C 272.784 166.714,271.929 166.674,270.699 168.039 C 269.585 169.276,269.589 169.379,270.829 171.017 C 273.342 174.337,272.264 179.085,268.998 179.085 C 268.406 179.085,264.422 177.048,262.021 175.518 C 261.263 175.036,260.586 174.641,260.515 174.641 C 260.445 174.641,259.801 174.229,259.085 173.725 C 258.369 173.222,257.694 172.810,257.586 172.810 C 257.477 172.810,256.438 171.798,255.276 170.561 C 251.551 166.594,247.935 167.305,250.104 171.577 C 251.688 174.698,251.102 179.642,249.020 180.716 C 248.211 181.133,248.354 181.138,242.614 180.512 C 241.680 180.410,240.268 180.155,239.477 179.945 C 238.686 179.735,237.686 179.473,237.255 179.363 C 233.703 178.458,230.499 176.216,228.703 173.377 C 226.677 170.173,226.079 169.592,225.032 169.804 C 223.209 170.174,223.060 170.808,223.774 175.163 C 224.278 178.242,223.725 180.894,222.021 183.557 C 220.891 185.324,218.114 185.659,214.947 184.411 C 210.698 182.737,208.546 179.965,207.565 174.902 C 207.211 173.074,207.022 172.820,206.013 172.815 C 204.432 172.808,203.791 173.601,203.029 176.508 C 200.764 185.147,195.538 187.344,188.960 182.423 C 187.914 181.641,186.059 180.309,184.837 179.462 C 181.223 176.958,181.362 177.614,183.095 171.246 C 183.573 169.486,183.531 169.412,182.035 169.412 C 180.329 169.412,179.302 170.277,178.165 172.672 C 175.368 178.566,172.746 181.440,170.171 181.434 C 162.961 181.419,159.758 176.696,162.051 169.462 C 162.534 167.938,162.074 167.592,159.556 167.585 C 158.208 167.582,158.191 167.592,157.272 168.954 C 156.151 170.616,153.973 172.941,152.549 173.996 C 151.974 174.423,151.334 174.932,151.126 175.129 C 150.678 175.555,146.966 177.303,145.509 177.775 C 144.257 178.180,139.873 178.199,139.133 177.803 C 138.838 177.645,138.363 177.516,138.077 177.516 C 137.132 177.516,133.814 175.624,132.320 174.233 L 130.850 172.864 130.858 171.294 C 130.867 169.833,131.061 169.190,132.348 166.374 C 132.680 165.646,132.486 164.813,132.011 164.928 C 131.803 164.978,130.987 165.113,130.196 165.229 C 128.835 165.429,126.157 166.271,125.167 166.811 C 124.917 166.947,124.574 167.059,124.405 167.059 C 124.235 167.059,122.821 167.548,121.261 168.146 C 118.158 169.335,118.060 169.338,118.438 168.218 C 118.580 167.796,118.982 166.559,119.331 165.469 C 120.893 160.595,123.048 157.195,126.844 153.615 C 128.303 152.238,129.547 151.111,129.607 151.111 C 129.667 151.111,130.442 151.543,131.329 152.071 M248.296 152.297 C 247.188 153.050,247.123 153.337,247.860 154.222 L 248.382 154.849 249.355 154.063 C 251.365 152.437,250.417 150.856,248.296 152.297 M241.932 153.077 C 240.955 154.054,241.142 155.135,242.306 155.247 C 244.038 155.413,245.102 153.878,243.966 152.851 C 243.296 152.245,242.698 152.311,241.932 153.077 M158.419 175.622 C 159.598 179.347,161.293 181.556,163.936 182.809 C 169.154 185.283,172.160 184.622,177.252 179.881 C 179.311 177.964,179.039 177.953,180.109 179.997 C 185.518 190.329,201.187 191.028,205.153 181.114 C 205.662 179.844,205.654 179.841,207.190 181.879 C 211.786 187.983,219.602 189.576,224.377 185.384 C 225.674 184.245,227.190 180.410,227.190 178.268 C 227.190 177.630,227.630 177.650,228.758 178.338 C 232.880 180.852,239.681 183.007,243.497 183.007 C 244.037 183.007,244.714 183.132,245.001 183.286 C 245.860 183.746,249.700 183.664,250.663 183.166 C 252.830 182.046,254.068 180.189,254.648 177.190 C 254.982 175.462,255.024 175.439,256.078 176.415 C 257.953 178.151,263.388 181.075,266.380 181.958 C 270.675 183.226,275.286 179.944,276.241 174.941 L 276.408 174.064 278.139 174.247 C 280.208 174.467,279.870 174.132,280.384 176.471 C 281.606 182.033,280.986 188.308,278.662 193.891 C 277.737 196.111,277.427 196.339,274.641 196.838 C 273.634 197.018,271.693 197.388,270.327 197.660 C 267.546 198.213,265.264 198.608,262.745 198.972 C 261.810 199.108,260.281 199.337,259.346 199.481 C 258.412 199.626,256.588 199.858,255.294 199.998 C 254.000 200.138,251.941 200.375,250.719 200.525 C 249.497 200.675,243.144 200.919,236.601 201.068 C 230.059 201.217,224.235 201.393,223.660 201.459 C 223.085 201.525,221.673 201.635,220.523 201.703 C 211.370 202.243,208.941 202.390,206.536 202.547 C 203.242 202.761,166.329 202.759,164.837 202.544 C 163.740 202.386,159.058 201.907,156.601 201.701 C 154.729 201.545,153.012 201.394,149.020 201.036 C 146.239 200.787,143.284 200.448,136.146 199.559 C 134.625 199.370,134.486 199.209,133.946 197.021 L 133.515 195.275 134.208 194.551 C 135.110 193.610,135.085 193.371,133.987 192.495 L 133.072 191.765 133.079 187.974 C 133.087 183.784,133.435 179.401,133.789 179.048 C 133.919 178.918,134.685 179.088,135.571 179.444 C 141.434 181.803,151.139 179.698,155.294 175.167 C 157.109 173.188,157.674 173.270,158.419 175.622 M158.833 183.818 C 156.574 185.801,159.046 187.156,161.603 185.335 C 162.518 184.683,162.532 184.469,161.711 183.648 C 160.850 182.787,159.946 182.840,158.833 183.818 M259.612 183.866 C 258.766 184.294,258.345 185.436,258.821 186.010 C 259.388 186.693,261.137 186.433,261.778 185.571 C 262.792 184.208,261.283 183.020,259.612 183.866 M145.817 184.344 C 144.927 185.007,144.916 185.358,145.756 186.148 L 146.414 186.766 147.586 186.197 C 148.909 185.555,149.025 185.178,148.153 184.359 C 147.403 183.655,146.747 183.650,145.817 184.344 M236.993 186.592 C 235.254 187.483,234.969 188.356,236.201 189.015 C 237.478 189.698,239.807 188.285,238.995 187.320 C 238.102 186.259,237.833 186.162,236.993 186.592 M272.744 188.562 C 270.761 189.945,271.957 191.841,274.173 190.826 C 275.673 190.138,275.745 189.894,274.749 188.866 C 273.724 187.808,273.807 187.821,272.744 188.562 M181.569 189.133 C 179.843 189.913,179.656 190.197,180.372 190.959 C 181.145 191.782,181.471 191.796,182.775 191.063 C 183.951 190.402,184.020 190.110,183.186 189.327 C 182.483 188.666,182.577 188.678,181.569 189.133 M208.557 189.683 C 207.514 190.391,207.429 190.598,207.852 191.390 C 208.287 192.203,211.242 191.583,211.242 190.679 C 211.242 189.374,209.799 188.839,208.557 189.683 M250.306 192.652 C 248.920 193.497,248.764 193.862,249.405 194.762 C 250.113 195.756,250.247 195.751,251.227 194.706 C 252.634 193.205,251.939 191.657,250.306 192.652 M151.966 193.449 C 150.337 195.515,150.895 197.704,152.935 197.256 C 154.924 196.819,155.315 195.147,153.780 193.648 C 152.609 192.505,152.702 192.515,151.966 193.449 M226.471 193.866 C 225.151 194.791,225.185 197.113,226.512 196.604 C 226.813 196.489,227.559 196.246,228.170 196.064 C 228.781 195.882,229.281 195.581,229.281 195.395 C 229.281 194.704,228.677 193.765,228.138 193.620 C 227.304 193.397,227.097 193.427,226.471 193.866 M192.288 195.623 C 190.813 196.701,190.707 198.092,192.058 198.611 C 192.463 198.766,194.488 196.757,194.502 196.184 C 194.529 195.173,193.321 194.867,192.288 195.623 M113.099 196.483 C 114.522 197.137,115.922 197.775,116.209 197.902 C 117.341 198.400,120.998 199.695,122.484 200.124 C 123.346 200.373,124.346 200.675,124.706 200.794 C 127.528 201.735,134.932 202.868,138.301 202.874 C 142.273 202.881,142.868 203.069,147.059 205.637 C 148.497 206.518,150.791 207.832,152.157 208.557 C 154.988 210.059,159.044 212.374,166.928 216.988 C 190.559 230.819,190.944 230.995,197.516 230.951 C 206.637 230.890,216.025 228.457,224.706 223.907 C 225.569 223.454,228.275 222.046,230.719 220.777 C 237.421 217.299,242.507 214.211,252.387 207.620 L 258.107 203.804 262.844 203.602 C 269.295 203.326,271.588 202.858,282.222 199.647 C 287.244 198.130,288.608 198.478,290.056 201.643 C 294.365 211.062,290.430 222.198,281.130 226.903 C 276.431 229.279,272.112 230.544,260.392 232.977 C 254.017 234.300,252.668 234.340,233.464 233.772 C 227.065 233.584,208.477 233.388,192.157 233.338 C 170.528 233.272,162.094 233.163,161.046 232.937 C 160.255 232.766,156.843 232.532,153.464 232.416 C 150.085 232.301,146.320 232.083,145.098 231.932 C 143.876 231.781,142.288 231.583,141.569 231.493 C 138.659 231.128,130.778 229.303,125.752 227.829 C 124.529 227.470,122.706 226.936,121.699 226.641 C 116.597 225.147,111.645 222.393,109.410 219.807 C 104.642 214.290,103.670 203.600,107.355 197.193 C 108.619 194.995,109.597 194.874,113.099 196.483 M170.216 195.971 C 169.250 196.784,169.229 197.023,170.035 198.031 L 170.656 198.807 171.868 198.184 C 173.739 197.222,173.804 197.017,172.529 196.094 C 171.194 195.127,171.218 195.128,170.216 195.971 M110.629 198.851 C 108.874 200.080,112.378 203.958,115.016 203.707 C 116.490 203.566,116.468 202.770,114.953 201.406 C 111.705 198.480,111.409 198.304,110.629 198.851 M251.373 203.884 C 251.373 204.078,250.655 204.507,249.778 204.837 C 247.655 205.635,239.393 209.331,229.981 213.693 C 228.856 214.214,227.900 214.641,227.855 214.641 C 227.811 214.641,225.437 215.771,222.580 217.152 C 214.733 220.947,212.572 221.874,208.671 223.120 C 193.398 227.996,192.250 227.894,179.216 220.504 C 175.621 218.466,170.209 215.420,167.190 213.736 C 164.170 212.051,160.935 210.170,160.000 209.556 C 159.065 208.941,157.502 207.935,156.526 207.320 C 153.661 205.512,154.122 205.416,162.745 206.018 C 175.407 206.903,193.884 206.831,202.614 205.862 C 204.556 205.647,209.556 205.365,213.725 205.235 C 223.756 204.922,232.715 204.480,240.392 203.918 C 247.852 203.373,251.373 203.362,251.373 203.884 M281.996 204.725 C 280.920 205.571,281.129 206.049,283.165 207.397 C 284.991 208.606,285.561 208.777,286.732 208.463 C 288.034 208.114,287.139 206.288,285.000 204.932 C 283.597 204.042,282.923 203.996,281.996 204.725 M109.034 204.691 C 108.346 205.127,110.145 207.843,111.122 207.843 C 111.957 207.843,112.941 207.258,112.941 206.762 C 112.941 205.767,109.891 204.150,109.034 204.691 M278.712 209.905 C 277.624 210.205,277.819 210.572,280.353 212.994 C 283.156 215.674,284.789 216.350,285.864 215.275 C 286.779 214.360,283.682 210.980,281.927 210.980 C 281.846 210.980,281.468 210.761,281.086 210.492 C 280.188 209.859,279.499 209.689,278.712 209.905 M276.078 217.112 C 276.078 217.905,276.300 218.205,277.906 219.587 C 280.731 222.019,281.156 222.178,282.105 221.162 C 283.137 220.057,283.160 220.109,280.850 218.354 C 277.470 215.787,276.078 215.425,276.078 217.112 M273.137 221.880 C 272.550 222.033,272.540 221.983,273.489 223.664 C 274.414 225.303,274.533 225.353,275.275 224.409 C 276.553 222.784,275.309 221.312,273.137 221.880 " stroke="none" fill="#86282a" fill-rule="evenodd"></path><path id="path2" d="M0.000 130.719 L 0.000 261.438 200.000 261.438 L 400.000 261.438 400.000 130.719 L 400.000 0.000 200.000 0.000 L 0.000 0.000 0.000 130.719 M209.217 21.554 C 211.474 22.045,213.057 22.222,215.179 22.222 C 216.769 22.222,218.621 22.346,219.296 22.498 C 220.966 22.873,222.508 23.287,223.137 23.528 C 225.294 24.354,226.363 24.819,228.889 26.027 C 230.471 26.784,232.588 27.658,233.595 27.970 C 238.049 29.349,243.039 30.956,243.399 31.128 C 243.614 31.231,244.955 31.796,246.378 32.383 C 251.248 34.393,255.092 36.832,258.574 40.120 C 259.228 40.737,260.234 41.483,260.810 41.776 C 261.789 42.276,267.059 47.466,274.793 55.549 C 276.578 57.415,279.456 60.415,281.188 62.216 C 289.900 71.274,289.218 70.411,292.351 76.340 C 292.997 77.562,294.054 79.562,294.700 80.784 C 295.346 82.007,296.191 83.830,296.578 84.837 C 296.966 85.843,297.384 86.902,297.508 87.190 C 302.149 97.934,302.344 99.510,301.219 117.124 C 300.562 127.393,300.266 129.543,298.675 135.556 C 298.295 136.993,297.925 138.553,297.852 139.022 C 297.779 139.491,297.615 139.939,297.487 140.018 C 296.320 140.739,302.384 145.133,304.494 145.094 C 305.110 145.083,308.733 147.204,309.678 148.130 C 312.664 151.055,312.647 154.622,309.634 157.376 C 308.111 158.768,304.828 160.523,303.748 160.523 C 302.124 160.523,302.018 161.012,303.066 163.697 C 304.784 168.101,304.968 169.204,304.959 175.033 C 304.943 184.155,302.371 189.352,294.662 195.833 C 292.966 197.260,292.886 197.801,294.031 200.140 C 295.349 202.835,295.556 203.954,295.556 208.418 C 295.556 211.353,295.462 212.616,295.229 212.850 C 295.049 213.029,294.902 213.372,294.902 213.611 C 294.902 214.028,293.919 216.565,292.925 218.717 C 290.104 224.819,283.328 230.474,276.063 232.788 C 274.849 233.175,273.463 233.673,272.982 233.894 C 271.967 234.361,268.781 235.492,267.451 235.857 C 266.948 235.995,266.124 236.220,265.621 236.357 C 262.327 237.253,258.964 237.631,249.412 238.182 C 247.039 238.319,244.510 238.538,243.791 238.670 C 237.406 239.840,234.600 240.261,230.719 240.635 C 222.386 241.437,199.377 241.343,181.961 240.436 C 177.575 240.208,171.458 239.892,168.366 239.735 C 161.842 239.403,158.870 239.080,153.203 238.084 C 151.980 237.870,149.686 237.501,148.105 237.266 C 146.523 237.030,144.817 236.735,144.314 236.608 C 143.810 236.482,142.752 236.255,141.961 236.103 C 134.824 234.733,129.618 233.303,124.444 231.291 C 121.479 230.137,117.590 228.711,115.294 227.935 C 104.798 224.387,97.999 209.924,102.285 200.261 C 103.397 197.753,104.178 196.160,104.885 194.956 C 105.290 194.266,105.621 193.663,105.621 193.615 C 105.621 193.566,104.957 193.025,104.145 192.413 C 100.580 189.721,97.745 185.746,96.505 181.699 C 94.625 175.565,94.266 172.287,95.034 168.271 C 95.607 165.275,96.493 162.936,98.008 160.419 C 99.695 157.615,99.754 157.808,97.059 157.285 C 89.306 155.782,86.804 152.698,88.626 146.890 C 90.350 141.392,94.238 137.984,101.699 135.428 C 106.131 133.910,106.106 133.942,104.869 131.369 C 103.909 129.374,102.403 124.885,101.843 122.353 C 101.604 121.275,101.306 119.922,101.179 119.346 C 100.901 118.076,100.487 115.668,100.213 113.725 C 99.949 111.856,99.944 92.637,100.206 89.412 C 100.923 80.593,102.076 73.935,103.534 70.196 C 103.646 69.908,103.887 69.261,104.069 68.758 C 105.324 65.290,108.441 60.078,110.927 57.292 C 111.682 56.445,112.886 54.964,113.601 53.999 C 115.549 51.373,118.403 47.886,118.794 47.655 C 118.984 47.543,119.942 46.745,120.923 45.882 C 121.905 45.020,123.187 43.896,123.772 43.385 C 125.385 41.977,128.813 39.477,129.131 39.477 C 129.285 39.477,129.412 39.378,129.412 39.257 C 129.412 39.136,130.029 38.705,130.784 38.299 C 131.539 37.894,132.627 37.245,133.203 36.859 C 135.277 35.466,140.533 33.040,146.797 30.585 C 152.768 28.244,152.549 28.315,156.863 27.323 C 158.516 26.943,160.810 26.412,161.961 26.144 C 163.111 25.876,164.523 25.580,165.098 25.485 C 165.673 25.391,166.673 25.206,167.320 25.073 C 168.609 24.810,171.770 24.290,178.301 23.265 C 179.092 23.141,180.444 22.908,181.307 22.746 C 184.842 22.085,190.714 21.429,198.693 20.802 C 201.594 20.574,206.233 20.906,209.217 21.554 M235.948 86.057 C 233.241 87.554,231.485 93.178,233.015 95.448 C 234.599 97.799,236.481 96.550,238.596 91.741 C 240.081 88.365,238.379 84.712,235.948 86.057 M153.226 88.390 C 150.972 89.291,148.735 95.198,149.837 97.337 C 151.314 100.206,152.934 99.594,155.224 95.304 C 157.361 91.301,156.178 87.209,153.226 88.390 " stroke="none" fill="#f4f3f3" fill-rule="evenodd"></path><path id="path3" d="M200.989 20.847 C 201.749 20.900,202.925 20.899,203.604 20.845 C 204.282 20.792,203.660 20.748,202.222 20.749 C 200.784 20.750,200.229 20.794,200.989 20.847 M194.248 21.176 L 193.072 21.359 194.118 21.373 C 194.693 21.380,195.810 21.297,196.601 21.187 L 198.039 20.989 196.732 20.991 C 196.013 20.992,194.895 21.076,194.248 21.176 M205.882 21.176 C 206.314 21.286,206.961 21.378,207.320 21.381 L 207.974 21.386 207.320 21.176 C 206.961 21.061,206.314 20.969,205.882 20.972 L 205.098 20.977 205.882 21.176 M187.976 21.732 C 185.425 22.028,184.964 22.254,187.320 22.055 C 190.614 21.777,192.492 21.504,191.111 21.505 C 190.464 21.505,189.053 21.608,187.976 21.732 M208.627 21.699 C 208.987 21.814,209.575 21.906,209.935 21.904 C 210.522 21.899,210.508 21.879,209.804 21.699 C 208.698 21.418,207.749 21.418,208.627 21.699 M182.745 22.484 L 182.092 22.693 182.745 22.704 C 183.105 22.710,183.869 22.618,184.444 22.499 L 185.490 22.282 184.444 22.278 C 183.869 22.276,183.105 22.369,182.745 22.484 M212.418 22.376 C 213.543 22.555,219.700 22.629,219.085 22.457 C 218.725 22.357,216.961 22.279,215.163 22.284 C 213.366 22.289,212.131 22.331,212.418 22.376 M179.869 23.019 C 179.429 23.169,179.641 23.192,180.523 23.091 C 181.242 23.007,181.879 22.896,181.939 22.842 C 182.145 22.659,180.522 22.797,179.869 23.019 M220.153 22.839 C 220.212 22.891,220.614 23.012,221.046 23.108 C 221.619 23.237,221.724 23.212,221.438 23.018 C 221.085 22.780,219.890 22.613,220.153 22.839 M176.601 23.529 L 176.078 23.754 176.601 23.742 C 176.889 23.735,177.477 23.639,177.908 23.529 L 178.693 23.330 177.908 23.317 C 177.477 23.310,176.889 23.406,176.601 23.529 M173.333 24.052 L 172.680 24.262 173.333 24.257 C 173.693 24.254,174.340 24.162,174.771 24.052 L 175.556 23.853 174.771 23.848 C 174.340 23.845,173.693 23.937,173.333 24.052 M223.791 24.029 C 224.007 24.151,224.477 24.328,224.837 24.424 L 225.490 24.597 224.837 24.203 C 224.477 23.987,224.007 23.809,223.791 23.808 C 223.442 23.807,223.442 23.831,223.791 24.029 M169.582 24.588 C 168.885 24.705,168.238 24.879,168.144 24.974 C 167.962 25.159,169.750 24.933,171.246 24.581 C 172.470 24.294,171.310 24.298,169.582 24.588 M226.495 25.128 C 227.048 25.420,227.555 25.604,227.623 25.536 C 227.771 25.388,226.181 24.570,225.777 24.587 C 225.619 24.593,225.942 24.837,226.495 25.128 M165.882 25.366 C 165.533 25.521,165.750 25.546,166.536 25.442 C 167.183 25.357,167.761 25.244,167.821 25.192 C 168.048 24.996,166.382 25.145,165.882 25.366 M163.007 25.882 L 162.484 26.107 163.007 26.094 C 163.294 26.088,163.882 25.992,164.314 25.882 L 165.098 25.683 164.314 25.670 C 163.882 25.663,163.294 25.759,163.007 25.882 M160.915 26.405 L 160.392 26.630 160.915 26.630 C 161.203 26.630,161.673 26.529,161.961 26.405 L 162.484 26.181 161.961 26.181 C 161.673 26.181,161.203 26.282,160.915 26.405 M158.431 26.928 C 157.914 27.094,157.887 27.137,158.301 27.137 C 158.588 27.137,159.118 27.043,159.477 26.928 C 159.995 26.762,160.022 26.719,159.608 26.719 C 159.320 26.719,158.791 26.813,158.431 26.928 M230.850 27.190 C 231.353 27.465,231.941 27.693,232.157 27.696 C 232.373 27.699,232.036 27.468,231.409 27.184 C 229.968 26.530,229.650 26.533,230.850 27.190 M155.859 27.499 C 155.235 27.638,154.776 27.805,154.840 27.869 C 154.975 28.004,157.647 27.461,157.647 27.299 C 157.647 27.150,157.197 27.200,155.859 27.499 M153.203 28.247 C 152.916 28.441,153.022 28.465,153.595 28.337 C 154.556 28.122,154.765 27.973,154.096 27.978 C 153.820 27.980,153.418 28.101,153.203 28.247 M233.595 28.235 C 233.882 28.359,234.294 28.460,234.510 28.460 C 234.757 28.460,234.709 28.377,234.379 28.235 C 234.092 28.112,233.680 28.011,233.464 28.011 C 233.217 28.011,233.265 28.094,233.595 28.235 M151.503 28.758 C 151.312 29.067,151.568 29.067,152.288 28.758 C 152.792 28.542,152.790 28.533,152.238 28.515 C 151.923 28.505,151.592 28.614,151.503 28.758 M235.425 28.758 C 235.712 28.882,236.124 28.983,236.340 28.983 C 236.587 28.983,236.539 28.900,236.209 28.758 C 235.922 28.635,235.510 28.533,235.294 28.533 C 235.047 28.533,235.095 28.617,235.425 28.758 M149.151 29.578 C 147.726 30.155,147.194 30.511,148.234 30.191 C 149.195 29.894,151.022 29.057,150.719 29.052 C 150.575 29.050,149.870 29.286,149.151 29.578 M238.466 29.664 C 238.668 29.866,241.931 30.836,242.040 30.727 C 242.096 30.671,241.354 30.381,240.390 30.084 C 238.586 29.526,238.256 29.455,238.466 29.664 M146.013 30.868 C 145.438 31.145,145.261 31.298,145.621 31.209 C 146.361 31.024,147.720 30.343,147.320 30.357 C 147.176 30.362,146.588 30.592,146.013 30.868 M142.309 32.368 C 141.710 32.611,141.122 32.909,141.002 33.030 C 140.727 33.307,143.050 32.418,143.386 32.118 C 143.721 31.818,143.582 31.850,142.309 32.368 M248.030 33.325 C 249.642 34.095,251.995 35.387,253.258 36.196 C 254.522 37.005,255.230 37.373,254.833 37.013 C 253.542 35.844,246.084 31.853,245.298 31.910 C 245.188 31.918,246.417 32.555,248.030 33.325 M137.451 34.527 C 136.049 35.230,134.902 35.859,134.902 35.924 C 134.902 36.034,140.391 33.522,140.632 33.302 C 141.098 32.876,139.570 33.464,137.451 34.527 M133.386 36.713 C 132.105 37.619,132.016 37.820,133.203 37.128 C 134.430 36.412,134.853 36.073,134.497 36.091 C 134.360 36.098,133.861 36.378,133.386 36.713 M130.654 38.351 C 129.971 38.731,129.412 39.135,129.412 39.249 C 129.412 39.363,130.000 39.090,130.719 38.643 C 131.438 38.196,132.026 37.789,132.026 37.739 C 132.026 37.594,131.965 37.621,130.654 38.351 M257.516 39.440 C 258.595 40.470,260.016 41.597,260.674 41.945 C 261.482 42.372,264.280 45.066,269.291 50.243 C 278.436 59.690,287.399 68.988,288.244 69.903 C 288.927 70.643,290.037 72.473,291.488 75.251 C 291.664 75.587,291.860 75.809,291.924 75.744 C 292.324 75.344,288.908 70.242,286.722 67.974 C 283.506 64.638,278.743 59.677,274.793 55.549 C 267.059 47.466,261.789 42.276,260.810 41.776 C 260.234 41.483,259.228 40.741,258.574 40.127 C 257.921 39.514,256.974 38.687,256.471 38.289 C 255.967 37.892,256.438 38.410,257.516 39.440 M126.492 41.256 C 122.940 44.000,121.338 45.341,121.322 45.581 C 121.314 45.703,121.984 45.222,122.810 44.512 C 123.637 43.802,125.373 42.422,126.667 41.445 C 129.454 39.342,129.297 39.474,128.998 39.491 C 128.866 39.499,127.739 40.293,126.492 41.256 M119.180 47.411 C 117.491 48.978,114.762 52.131,114.780 52.497 C 114.785 52.598,115.160 52.209,115.614 51.634 C 116.068 51.059,117.475 49.538,118.740 48.254 C 121.436 45.518,121.637 45.133,119.180 47.411 M113.212 54.575 C 112.362 55.690,112.218 55.955,112.820 55.294 C 113.888 54.124,114.872 52.810,114.682 52.810 C 114.614 52.810,113.952 53.605,113.212 54.575 M110.666 57.593 C 108.251 60.213,103.249 69.088,103.849 69.687 C 103.919 69.758,104.186 69.254,104.442 68.568 C 105.731 65.107,109.046 59.584,111.192 57.320 C 111.635 56.853,111.931 56.471,111.849 56.471 C 111.767 56.471,111.235 56.976,110.666 57.593 M102.385 73.605 C 102.296 73.839,102.233 74.285,102.246 74.597 C 102.263 74.998,102.343 74.907,102.522 74.285 C 102.783 73.380,102.676 72.848,102.385 73.605 M292.026 76.146 C 292.026 76.443,294.179 80.287,294.286 80.181 C 294.345 80.121,293.905 79.203,293.307 78.141 C 292.166 76.112,292.026 75.895,292.026 76.146 M101.581 77.528 C 101.481 78.195,101.452 78.794,101.518 78.860 C 101.583 78.925,101.718 78.433,101.818 77.766 C 101.918 77.099,101.947 76.500,101.881 76.435 C 101.816 76.369,101.681 76.861,101.581 77.528 M101.036 81.166 C 100.935 81.976,100.911 82.697,100.983 82.769 C 101.054 82.841,101.196 82.237,101.297 81.428 C 101.398 80.618,101.422 79.897,101.350 79.825 C 101.278 79.753,101.137 80.357,101.036 81.166 M296.022 84.147 C 296.612 85.597,297.141 86.737,297.197 86.681 C 297.330 86.548,295.505 82.067,295.190 81.752 C 295.057 81.619,295.432 82.697,296.022 84.147 M100.576 85.069 C 100.475 85.772,100.408 86.890,100.427 87.553 C 100.453 88.463,100.517 88.246,100.688 86.667 C 100.943 84.311,100.859 83.104,100.576 85.069 M234.901 86.572 C 234.067 87.304,232.748 89.567,233.006 89.825 C 233.061 89.880,233.321 89.427,233.583 88.819 C 234.159 87.481,234.651 86.878,235.686 86.238 C 236.118 85.972,236.328 85.753,236.153 85.753 C 235.978 85.752,235.415 86.121,234.901 86.572 M237.908 86.048 C 238.124 86.245,238.470 86.582,238.677 86.797 C 238.968 87.101,238.963 87.046,238.654 86.550 C 238.435 86.199,238.090 85.862,237.886 85.801 C 237.588 85.713,237.593 85.761,237.908 86.048 M239.077 89.186 C 239.069 90.984,239.084 91.037,239.310 89.999 C 239.454 89.337,239.457 88.557,239.318 88.073 C 239.128 87.409,239.083 87.614,239.077 89.186 M151.538 89.474 C 150.833 90.398,149.958 92.267,150.143 92.452 C 150.203 92.512,150.450 92.040,150.693 91.404 C 150.936 90.767,151.430 89.928,151.791 89.539 C 152.152 89.149,152.394 88.777,152.328 88.712 C 152.263 88.647,151.907 88.990,151.538 89.474 M156.209 91.503 C 156.209 92.643,156.289 93.374,156.387 93.128 C 156.485 92.881,156.565 92.150,156.565 91.503 C 156.565 90.856,156.485 90.125,156.387 89.879 C 156.289 89.633,156.209 90.364,156.209 91.503 M100.039 91.569 C 99.824 93.358,99.870 111.845,100.091 112.627 C 100.185 112.958,100.261 108.046,100.261 101.712 C 100.261 95.378,100.248 90.196,100.232 90.196 C 100.217 90.196,100.129 90.814,100.039 91.569 M232.597 90.557 C 232.499 90.814,232.426 91.219,232.435 91.459 C 232.446 91.748,232.537 91.682,232.704 91.264 C 232.843 90.917,232.916 90.511,232.866 90.362 C 232.816 90.214,232.695 90.301,232.597 90.557 M232.218 93.333 C 232.218 93.837,232.271 94.042,232.337 93.791 C 232.403 93.539,232.403 93.127,232.337 92.876 C 232.271 92.624,232.218 92.830,232.218 93.333 M238.092 92.745 C 238.032 92.853,237.653 93.529,237.249 94.248 C 236.846 94.967,236.637 95.438,236.785 95.294 C 237.163 94.927,238.511 92.549,238.341 92.549 C 238.264 92.549,238.152 92.637,238.092 92.745 M149.692 93.483 C 149.596 93.866,149.567 94.230,149.629 94.291 C 149.691 94.353,149.820 94.090,149.916 93.707 C 150.012 93.324,150.040 92.960,149.979 92.898 C 149.917 92.837,149.788 93.100,149.692 93.483 M299.772 93.578 C 300.017 94.535,300.634 95.873,300.624 95.425 C 300.619 95.209,300.389 94.562,300.112 93.987 C 299.835 93.412,299.682 93.228,299.772 93.578 M155.347 95.038 C 155.034 95.682,154.833 96.209,154.900 96.209 C 155.077 96.209,156.134 94.086,156.015 93.967 C 155.960 93.913,155.660 94.395,155.347 95.038 M232.418 94.889 C 232.418 96.354,234.886 97.341,235.998 96.321 L 236.732 95.648 235.881 96.240 C 234.809 96.986,233.878 96.729,233.015 95.448 C 232.687 94.961,232.418 94.710,232.418 94.889 M300.670 96.041 C 300.661 96.164,300.859 96.987,301.111 97.871 C 301.484 99.178,301.566 100.498,301.556 104.967 C 301.548 108.498,301.606 109.758,301.718 108.497 C 302.039 104.882,301.972 100.949,301.555 98.930 C 301.171 97.071,300.706 95.553,300.670 96.041 M149.550 97.185 C 149.546 97.363,149.866 97.839,150.261 98.244 C 150.657 98.648,150.791 98.738,150.559 98.444 C 150.327 98.149,150.007 97.673,149.848 97.386 C 149.689 97.098,149.555 97.008,149.550 97.185 M153.388 98.170 C 152.903 98.777,152.419 99.097,151.950 99.121 C 151.354 99.151,151.333 99.174,151.817 99.268 C 152.610 99.422,153.383 98.953,153.860 98.031 C 154.382 97.022,154.280 97.052,153.388 98.170 M301.114 114.118 C 301.007 115.556,300.867 118.320,300.802 120.261 C 300.701 123.276,300.739 123.028,301.061 118.562 C 301.268 115.686,301.409 112.922,301.372 112.418 C 301.336 111.915,301.220 112.680,301.114 114.118 M100.448 115.033 C 100.446 115.536,100.538 116.242,100.654 116.601 C 100.947 117.519,100.957 116.560,100.669 115.163 L 100.452 114.118 100.448 115.033 M100.952 118.301 C 100.952 118.588,101.053 119.059,101.176 119.346 L 101.401 119.869 101.401 119.346 C 101.401 119.059,101.300 118.588,101.176 118.301 L 100.952 117.778 100.952 118.301 M101.490 120.654 C 101.490 120.941,101.584 121.471,101.699 121.830 C 101.865 122.348,101.909 122.375,101.909 121.961 C 101.909 121.673,101.814 121.144,101.699 120.784 C 101.534 120.267,101.490 120.240,101.490 120.654 M102.129 123.529 C 102.217 124.105,102.397 124.752,102.529 124.967 C 102.685 125.223,102.707 125.041,102.592 124.444 C 102.322 123.042,101.939 122.283,102.129 123.529 M300.436 125.229 C 300.409 125.876,300.331 126.876,300.263 127.451 L 300.139 128.497 300.407 127.451 C 300.554 126.876,300.632 125.876,300.581 125.229 L 300.486 124.052 300.436 125.229 M103.276 127.320 C 103.276 127.536,103.390 127.889,103.529 128.105 C 103.755 128.453,103.783 128.453,103.783 128.105 C 103.783 127.889,103.669 127.536,103.529 127.320 C 103.304 126.972,103.276 126.972,103.276 127.320 M103.953 129.150 C 104.168 129.970,105.335 132.549,105.491 132.549 C 105.638 132.549,105.331 131.769,104.463 129.935 C 104.089 129.144,103.859 128.791,103.953 129.150 M299.774 129.643 C 299.673 130.273,299.646 130.844,299.713 130.911 C 299.889 131.087,300.206 129.245,300.070 128.838 C 300.008 128.651,299.874 129.013,299.774 129.643 M299.216 132.288 C 299.116 132.740,299.094 133.168,299.166 133.240 C 299.238 133.312,299.378 133.001,299.477 132.549 C 299.576 132.097,299.599 131.668,299.527 131.597 C 299.455 131.525,299.315 131.836,299.216 132.288 M298.678 134.544 C 298.584 134.957,298.343 135.874,298.143 136.583 C 297.762 137.929,297.685 138.480,297.911 138.255 C 298.138 138.028,299.116 134.062,298.979 133.924 C 298.907 133.853,298.772 134.132,298.678 134.544 M95.605 138.128 C 92.451 140.086,89.531 143.620,88.766 146.405 C 88.668 146.765,89.086 146.077,89.696 144.876 C 91.334 141.651,93.019 139.960,96.993 137.556 C 97.497 137.251,97.791 137.007,97.647 137.013 C 97.503 137.019,96.585 137.521,95.605 138.128 M297.552 138.868 C 297.532 139.107,297.440 139.519,297.347 139.783 C 297.217 140.152,297.251 140.194,297.500 139.965 C 297.677 139.802,297.769 139.390,297.705 139.050 C 297.640 138.710,297.572 138.628,297.552 138.868 M297.029 141.102 C 297.007 141.456,297.222 141.809,297.582 142.010 C 298.692 142.630,300.151 143.252,300.028 143.051 C 299.959 142.941,299.314 142.574,298.592 142.236 C 297.746 141.840,297.243 141.427,297.173 141.073 C 297.068 140.541,297.063 140.542,297.029 141.102 M308.552 147.420 C 309.085 147.880,309.879 148.690,310.316 149.220 C 310.753 149.751,311.111 150.065,311.111 149.918 C 311.111 149.520,309.263 147.591,308.366 147.054 C 307.698 146.653,307.725 146.707,308.552 147.420 M88.268 148.007 C 88.060 149.048,88.088 151.108,88.319 151.688 C 88.417 151.933,88.497 151.022,88.497 149.662 C 88.497 146.889,88.495 146.873,88.268 148.007 M311.226 150.535 C 311.332 150.721,311.519 151.662,311.643 152.626 L 311.868 154.379 311.779 152.590 C 311.730 151.602,311.544 150.666,311.362 150.499 C 311.111 150.266,311.079 150.275,311.226 150.535 M88.627 152.571 C 88.627 152.983,89.831 154.521,90.508 154.973 C 90.966 155.280,90.916 155.163,90.301 154.486 C 89.855 153.996,89.297 153.304,89.059 152.948 C 88.822 152.593,88.627 152.423,88.627 152.571 M311.159 155.162 C 310.995 155.522,310.363 156.375,309.755 157.058 L 308.648 158.301 309.770 157.255 C 310.836 156.262,311.798 154.848,311.565 154.615 C 311.506 154.556,311.323 154.802,311.159 155.162 M93.856 156.566 C 94.072 156.690,94.837 156.860,95.556 156.943 C 97.125 157.125,96.341 156.754,94.641 156.510 C 93.938 156.409,93.622 156.432,93.856 156.566 M98.127 157.427 C 99.229 157.675,99.373 157.783,99.251 158.268 C 99.114 158.811,99.119 158.812,99.493 158.312 C 99.970 157.674,99.668 157.462,98.014 157.274 L 96.863 157.143 98.127 157.427 M97.534 161.186 C 96.641 162.768,95.679 165.064,95.699 165.565 C 95.706 165.740,95.986 165.170,96.321 164.300 C 96.656 163.430,97.309 162.047,97.771 161.228 C 98.234 160.409,98.553 159.739,98.481 159.739 C 98.409 159.739,97.983 160.390,97.534 161.186 M303.791 160.261 L 303.137 160.471 303.791 160.493 C 304.150 160.505,304.621 160.401,304.837 160.261 C 305.336 159.939,304.799 159.939,303.791 160.261 M302.135 160.697 C 301.816 161.017,301.977 161.950,302.511 162.876 C 303.020 163.759,303.005 163.612,302.417 161.986 C 302.188 161.352,302.222 161.169,302.625 160.875 C 303.007 160.596,303.024 160.523,302.708 160.523 C 302.489 160.523,302.231 160.601,302.135 160.697 M303.027 163.922 C 303.018 163.993,303.305 164.876,303.665 165.882 C 304.024 166.889,304.244 167.308,304.154 166.814 C 304.006 166.009,303.067 163.598,303.027 163.922 M95.331 166.591 C 95.243 166.920,95.181 167.425,95.193 167.712 C 95.206 168.000,95.324 167.776,95.455 167.215 C 95.710 166.129,95.601 165.582,95.331 166.591 M304.363 168.497 C 304.370 168.784,304.465 169.373,304.575 169.804 L 304.775 170.588 304.787 169.804 C 304.794 169.373,304.699 168.784,304.575 168.497 L 304.350 167.974 304.363 168.497 M94.808 169.346 C 94.603 170.591,94.639 174.579,94.863 175.375 C 94.956 175.707,95.033 174.266,95.033 172.172 C 95.033 167.943,95.035 167.974,94.808 169.346 M304.940 174.902 C 304.940 176.987,304.981 177.840,305.031 176.797 C 305.080 175.755,305.080 174.049,305.031 173.007 C 304.981 171.964,304.940 172.817,304.940 174.902 M95.193 176.732 C 95.181 177.092,95.285 177.562,95.425 177.778 C 95.748 178.277,95.748 177.740,95.425 176.732 L 95.216 176.078 95.193 176.732 M95.723 178.824 C 95.723 179.039,95.824 179.451,95.948 179.739 C 96.089 180.068,96.172 180.116,96.172 179.869 C 96.172 179.654,96.071 179.242,95.948 178.954 C 95.806 178.625,95.723 178.576,95.723 178.824 M304.480 180.362 C 304.379 180.992,304.352 181.563,304.419 181.630 C 304.594 181.806,304.912 179.964,304.776 179.557 C 304.714 179.370,304.580 179.732,304.480 180.362 M96.223 180.555 C 96.195 181.158,97.648 184.837,97.914 184.837 C 97.976 184.837,97.895 184.513,97.734 184.118 C 97.573 183.722,97.170 182.693,96.839 181.830 C 96.507 180.967,96.230 180.394,96.223 180.555 M303.940 182.633 C 303.844 183.016,303.816 183.380,303.877 183.442 C 303.939 183.503,304.068 183.240,304.164 182.857 C 304.260 182.474,304.289 182.110,304.227 182.048 C 304.166 181.987,304.036 182.250,303.940 182.633 M98.562 186.294 C 98.562 186.545,101.363 190.165,101.915 190.629 C 103.428 191.897,105.882 193.754,105.882 193.631 C 105.882 193.552,105.324 193.065,104.641 192.548 C 102.736 191.106,100.491 188.827,99.586 187.416 C 98.818 186.221,98.562 185.940,98.562 186.294 M301.163 188.431 C 300.526 189.402,298.886 191.367,297.518 192.798 C 296.016 194.371,295.469 195.063,296.135 194.548 C 297.806 193.256,301.192 189.181,302.196 187.255 C 302.767 186.157,302.326 186.660,301.163 188.431 M104.583 195.451 C 104.128 196.257,103.799 196.958,103.850 197.009 C 103.901 197.060,104.329 196.402,104.800 195.545 C 105.271 194.688,105.601 193.987,105.533 193.987 C 105.465 193.987,105.038 194.646,104.583 195.451 M293.968 196.146 L 293.203 196.992 293.987 196.339 C 294.418 195.980,294.820 195.657,294.880 195.621 C 294.940 195.585,294.932 195.498,294.861 195.428 C 294.791 195.357,294.389 195.680,293.968 196.146 M293.086 198.431 C 293.095 198.821,294.345 201.332,294.367 201.006 C 294.374 200.913,294.086 200.207,293.728 199.438 C 293.370 198.669,293.081 198.216,293.086 198.431 M102.106 200.660 C 101.894 201.167,101.660 202.020,101.585 202.556 L 101.450 203.529 101.734 202.614 C 101.890 202.111,102.180 201.258,102.379 200.719 C 102.837 199.477,102.619 199.430,102.106 200.660 M294.528 201.830 C 294.643 202.190,294.883 203.013,295.063 203.660 C 295.243 204.307,295.397 204.615,295.407 204.344 C 295.431 203.685,294.876 201.765,294.567 201.438 C 294.411 201.273,294.397 201.418,294.528 201.830 M101.078 204.739 C 100.867 205.793,100.900 208.628,101.129 209.205 C 101.227 209.451,101.317 208.363,101.329 206.787 C 101.352 203.694,101.328 203.492,101.078 204.739 M295.485 210.196 C 295.485 210.699,295.539 210.905,295.605 210.654 C 295.671 210.402,295.671 209.990,295.605 209.739 C 295.539 209.487,295.485 209.693,295.485 210.196 M101.548 211.111 C 101.931 212.740,102.536 214.675,102.632 214.579 C 102.750 214.461,101.705 210.650,101.502 210.458 C 101.426 210.386,101.447 210.680,101.548 211.111 M295.203 211.678 C 295.181 211.990,295.087 212.460,294.994 212.724 C 294.864 213.092,294.899 213.135,295.145 212.908 C 295.322 212.745,295.415 212.275,295.354 211.862 C 295.275 211.333,295.230 211.279,295.203 211.678 M294.671 213.639 C 294.654 213.879,294.573 214.290,294.490 214.554 C 294.347 215.008,294.355 215.008,294.638 214.567 C 294.803 214.311,294.884 213.899,294.819 213.652 C 294.713 213.247,294.698 213.246,294.671 213.639 M103.273 216.355 C 103.267 216.683,105.003 219.622,105.425 220.000 C 105.585 220.144,105.495 219.908,105.223 219.477 C 104.951 219.046,104.402 218.105,104.003 217.386 C 103.604 216.667,103.275 216.203,103.273 216.355 M292.386 219.150 C 292.003 219.905,291.510 220.817,291.289 221.176 C 290.926 221.768,290.926 221.793,291.295 221.438 C 291.930 220.828,293.516 217.778,293.199 217.778 C 293.134 217.778,292.768 218.395,292.386 219.150 M106.401 221.460 C 106.849 222.119,107.883 223.295,108.698 224.074 L 110.181 225.490 108.619 223.791 C 107.760 222.856,106.726 221.680,106.322 221.176 C 105.685 220.383,105.695 220.420,106.401 221.460 M289.794 223.203 C 289.250 223.886,288.030 225.198,287.082 226.118 C 286.135 227.039,285.731 227.538,286.186 227.228 C 287.531 226.310,291.416 221.961,290.890 221.961 C 290.831 221.961,290.337 222.520,289.794 223.203 M110.327 225.581 C 110.327 225.694,110.739 225.982,111.242 226.222 C 111.745 226.462,112.157 226.613,112.157 226.558 C 112.157 226.502,111.745 226.214,111.242 225.917 C 110.739 225.620,110.327 225.469,110.327 225.581 M113.856 227.451 C 114.144 227.575,114.556 227.676,114.771 227.676 C 115.018 227.676,114.970 227.593,114.641 227.451 C 114.353 227.327,113.941 227.226,113.725 227.226 C 113.478 227.226,113.527 227.309,113.856 227.451 M115.317 227.822 C 115.419 227.925,116.855 228.471,118.039 228.859 C 118.327 228.953,117.974 228.735,117.255 228.374 C 116.130 227.811,114.976 227.482,115.317 227.822 M284.169 228.449 C 283.657 228.835,282.951 229.359,282.600 229.614 L 281.961 230.077 282.745 229.698 C 283.466 229.350,285.529 227.724,285.229 227.741 C 285.157 227.745,284.680 228.064,284.169 228.449 M121.830 230.327 C 122.046 230.466,122.399 230.580,122.614 230.580 C 122.963 230.580,122.963 230.552,122.614 230.327 C 122.399 230.187,122.046 230.073,121.830 230.073 C 121.481 230.073,121.481 230.102,121.830 230.327 M280.654 230.606 C 280.222 230.882,279.963 231.109,280.078 231.110 C 280.366 231.112,281.830 230.342,281.830 230.189 C 281.830 229.962,281.446 230.098,280.654 230.606 M124.444 231.182 C 124.444 231.382,127.584 232.504,127.731 232.356 C 127.804 232.283,127.294 232.037,126.597 231.810 C 125.901 231.582,125.131 231.319,124.888 231.225 C 124.644 231.132,124.444 231.112,124.444 231.182 M278.170 231.731 C 277.379 232.060,276.395 232.414,275.982 232.517 C 275.570 232.621,275.297 232.770,275.376 232.849 C 275.623 233.095,279.739 231.573,279.739 231.235 C 279.739 231.071,279.813 231.048,278.170 231.731 M128.366 232.680 C 128.582 232.819,128.935 232.933,129.150 232.933 C 129.499 232.933,129.499 232.905,129.150 232.680 C 128.935 232.540,128.582 232.426,128.366 232.426 C 128.017 232.426,128.017 232.454,128.366 232.680 M131.503 233.725 C 131.719 233.865,132.131 233.972,132.418 233.965 L 132.941 233.950 132.418 233.725 C 131.637 233.390,130.984 233.390,131.503 233.725 M271.955 234.041 C 271.196 234.340,270.623 234.631,270.680 234.689 C 270.808 234.817,272.977 233.993,273.320 233.686 C 273.657 233.385,273.547 233.414,271.955 234.041 M133.464 234.248 C 133.752 234.372,134.222 234.470,134.510 234.465 C 134.930 234.459,134.905 234.417,134.379 234.248 C 133.485 233.962,132.798 233.962,133.464 234.248 M136.732 235.033 C 137.626 235.319,138.313 235.319,137.647 235.033 C 137.359 234.909,136.889 234.811,136.601 234.816 C 136.181 234.822,136.207 234.864,136.732 235.033 M139.085 235.556 C 139.444 235.671,139.974 235.765,140.261 235.765 C 140.675 235.765,140.648 235.721,140.131 235.556 C 139.771 235.440,139.242 235.346,138.954 235.346 C 138.540 235.346,138.567 235.390,139.085 235.556 M267.712 235.556 C 267.364 235.781,267.364 235.809,267.712 235.809 C 267.928 235.809,268.281 235.695,268.497 235.556 C 268.845 235.330,268.845 235.302,268.497 235.302 C 268.281 235.302,267.928 235.416,267.712 235.556 M141.830 236.066 C 142.332 236.294,143.732 236.442,143.508 236.244 C 143.448 236.191,142.928 236.076,142.353 235.989 C 141.624 235.878,141.466 235.901,141.830 236.066 M265.882 236.078 C 265.344 236.251,265.321 236.292,265.752 236.310 C 266.039 236.322,266.451 236.218,266.667 236.078 C 267.125 235.782,266.807 235.782,265.882 236.078 M144.444 236.570 C 145.060 236.855,150.835 237.749,151.000 237.584 C 151.062 237.522,149.847 237.266,148.301 237.015 C 143.847 236.292,143.846 236.292,144.444 236.570 M263.137 236.643 C 262.562 236.781,260.915 237.058,259.477 237.258 C 256.955 237.609,256.934 237.617,258.872 237.494 C 260.855 237.369,264.815 236.710,265.059 236.466 C 265.250 236.275,264.310 236.362,263.137 236.643 M152.288 237.908 C 152.719 238.018,153.366 238.110,153.725 238.113 L 154.379 238.118 153.725 237.908 C 153.366 237.793,152.719 237.701,152.288 237.704 L 151.503 237.709 152.288 237.908 M248.497 237.908 C 246.637 238.164,250.905 238.170,253.595 237.917 C 255.505 237.736,255.481 237.732,252.680 237.730 C 251.098 237.730,249.216 237.810,248.497 237.908 M155.294 238.431 C 155.654 238.546,156.359 238.638,156.863 238.636 L 157.778 238.631 156.993 238.431 C 155.843 238.139,154.380 238.139,155.294 238.431 M243.922 238.431 C 243.039 238.617,243.035 238.624,243.791 238.627 C 244.222 238.629,244.928 238.541,245.359 238.431 C 246.444 238.155,245.233 238.155,243.922 238.431 M158.824 238.940 C 159.318 239.166,161.779 239.326,161.547 239.118 C 161.487 239.064,160.732 238.948,159.869 238.861 C 158.834 238.756,158.478 238.783,158.824 238.940 M240.915 238.954 L 240.131 239.154 240.915 239.166 C 241.346 239.173,241.935 239.078,242.222 238.954 L 242.745 238.730 242.222 238.742 C 241.935 238.749,241.346 238.844,240.915 238.954 M162.680 239.396 C 162.931 239.462,163.343 239.462,163.595 239.396 C 163.846 239.330,163.641 239.276,163.137 239.276 C 162.634 239.276,162.428 239.330,162.680 239.396 M237.124 239.627 L 235.425 239.974 236.901 239.841 C 237.714 239.768,238.714 239.607,239.124 239.484 C 240.265 239.142,239.083 239.226,237.124 239.627 M165.033 239.668 C 165.572 239.724,166.454 239.724,166.993 239.668 C 167.533 239.611,167.092 239.565,166.013 239.565 C 164.935 239.565,164.493 239.611,165.033 239.668 M170.915 239.933 C 172.101 239.982,174.042 239.982,175.229 239.933 C 176.415 239.885,175.444 239.845,173.072 239.845 C 170.699 239.845,169.729 239.885,170.915 239.933 M177.800 240.096 C 177.859 240.149,179.791 240.254,182.092 240.328 C 184.626 240.410,185.605 240.384,184.575 240.262 C 182.815 240.054,177.608 239.927,177.800 240.096 M232.418 240.261 C 231.054 240.549,232.644 240.560,234.248 240.275 L 235.425 240.065 234.379 240.067 C 233.804 240.068,232.922 240.156,232.418 240.261 M189.412 240.815 C 190.947 240.985,207.570 241.067,206.797 240.900 C 206.582 240.854,202.229 240.776,197.124 240.728 C 192.020 240.680,188.549 240.719,189.412 240.815 M225.752 240.784 L 223.922 240.953 225.752 240.971 C 226.758 240.981,228.288 240.901,229.150 240.794 L 230.719 240.600 229.150 240.607 C 228.288 240.612,226.758 240.691,225.752 240.784 M212.600 241.241 C 214.138 241.287,216.726 241.287,218.352 241.241 C 219.977 241.195,218.719 241.157,215.556 241.157 C 212.392 241.157,211.062 241.195,212.600 241.241 " stroke="none" fill="#b89094" fill-rule="evenodd"></path><path id="path4" d="M198.632 21.105 C 199.102 21.163,199.808 21.161,200.201 21.102 C 200.594 21.042,200.209 20.995,199.346 20.996 C 198.484 20.998,198.162 21.046,198.632 21.105 M203.859 21.100 C 204.184 21.162,204.655 21.160,204.905 21.095 C 205.155 21.029,204.889 20.978,204.314 20.981 C 203.739 20.984,203.534 21.037,203.859 21.100 M196.016 21.361 C 196.341 21.424,196.812 21.422,197.062 21.356 C 197.312 21.291,197.046 21.239,196.471 21.242 C 195.895 21.245,195.691 21.299,196.016 21.361 M192.617 21.623 C 192.943 21.685,193.413 21.683,193.663 21.618 C 193.913 21.552,193.647 21.501,193.072 21.504 C 192.497 21.507,192.292 21.560,192.617 21.623 M207.582 21.699 C 207.941 21.814,208.471 21.909,208.758 21.909 C 209.172 21.909,209.145 21.865,208.627 21.699 C 208.268 21.584,207.739 21.490,207.451 21.490 C 207.037 21.490,207.064 21.534,207.582 21.699 M190.261 21.884 C 190.585 21.946,191.114 21.946,191.438 21.884 C 191.761 21.822,191.497 21.771,190.850 21.771 C 190.203 21.771,189.938 21.822,190.261 21.884 M186.275 22.222 L 185.229 22.409 186.144 22.416 C 186.647 22.419,187.412 22.332,187.843 22.222 C 188.907 21.952,187.786 21.952,186.275 22.222 M210.327 22.210 C 210.829 22.437,212.229 22.586,212.004 22.388 C 211.944 22.335,211.425 22.220,210.850 22.132 C 210.121 22.021,209.962 22.045,210.327 22.210 M218.039 22.732 C 218.692 22.954,220.315 23.093,220.109 22.909 C 220.049 22.856,219.412 22.744,218.693 22.661 C 217.811 22.559,217.598 22.582,218.039 22.732 M182.288 22.925 C 182.539 22.991,182.951 22.991,183.203 22.925 C 183.454 22.860,183.248 22.806,182.745 22.806 C 182.242 22.806,182.036 22.860,182.288 22.925 M171.373 24.575 C 170.668 24.754,170.655 24.775,171.242 24.780 C 171.601 24.782,172.190 24.690,172.549 24.575 C 173.428 24.294,172.478 24.294,171.373 24.575 M224.575 24.437 C 224.575 24.644,226.471 25.381,226.620 25.232 C 226.693 25.158,226.690 25.098,226.611 25.098 C 226.533 25.098,226.043 24.920,225.522 24.702 C 225.001 24.485,224.575 24.366,224.575 24.437 M168.497 25.098 C 167.792 25.277,167.779 25.298,168.366 25.302 C 168.725 25.305,169.314 25.213,169.673 25.098 C 170.552 24.817,169.603 24.817,168.497 25.098 M165.621 25.621 C 164.909 25.802,164.897 25.822,165.490 25.833 C 165.850 25.840,166.379 25.744,166.667 25.621 C 167.311 25.344,166.710 25.344,165.621 25.621 M163.007 26.144 C 162.295 26.325,162.283 26.345,162.876 26.356 C 163.235 26.363,163.765 26.267,164.052 26.144 C 164.697 25.867,164.095 25.867,163.007 26.144 M184.118 26.063 C 184.369 26.128,184.781 26.128,185.033 26.063 C 185.284 25.997,185.078 25.943,184.575 25.943 C 184.072 25.943,183.866 25.997,184.118 26.063 M157.255 27.451 C 156.925 27.593,156.877 27.676,157.124 27.676 C 157.340 27.676,157.752 27.575,158.039 27.451 C 158.369 27.309,158.417 27.226,158.170 27.226 C 157.954 27.226,157.542 27.327,157.255 27.451 M236.471 29.281 C 236.758 29.405,237.170 29.506,237.386 29.506 C 237.633 29.506,237.584 29.423,237.255 29.281 C 236.967 29.157,236.556 29.056,236.340 29.056 C 236.093 29.056,236.141 29.139,236.471 29.281 M137.516 34.771 C 137.013 35.047,136.719 35.272,136.863 35.272 C 137.007 35.272,137.536 35.047,138.039 34.771 C 138.542 34.496,138.837 34.270,138.693 34.270 C 138.549 34.270,138.020 34.496,137.516 34.771 M249.935 34.366 C 249.935 34.438,250.288 34.679,250.719 34.902 C 251.150 35.125,251.503 35.249,251.503 35.177 C 251.503 35.105,251.150 34.864,250.719 34.641 C 250.288 34.417,249.935 34.294,249.935 34.366 M252.157 35.691 C 252.444 35.925,252.915 36.232,253.203 36.373 L 253.725 36.630 253.203 36.204 C 252.915 35.970,252.444 35.663,252.157 35.522 L 251.634 35.265 252.157 35.691 M255.686 38.074 C 256.333 38.627,257.462 39.610,258.195 40.258 C 258.928 40.907,258.760 40.696,257.823 39.789 C 256.885 38.883,255.756 37.900,255.314 37.605 C 254.872 37.310,255.039 37.521,255.686 38.074 M130.322 38.860 C 128.988 39.745,128.518 40.211,129.560 39.617 C 130.477 39.094,131.700 38.184,131.499 38.176 C 131.424 38.173,130.895 38.481,130.322 38.860 M127.451 40.805 C 125.900 41.978,125.691 42.309,127.146 41.289 C 128.244 40.519,128.842 39.983,128.578 40.007 C 128.533 40.011,128.026 40.370,127.451 40.805 M259.869 41.689 C 259.869 41.761,260.310 42.047,260.850 42.326 C 261.762 42.797,263.259 44.269,272.745 54.024 C 274.722 56.057,276.340 57.659,276.340 57.585 C 276.340 57.169,261.709 42.496,260.865 42.066 C 260.317 41.787,259.869 41.617,259.869 41.689 M121.891 45.236 C 121.422 45.664,121.135 46.013,121.254 46.013 C 121.373 46.013,121.809 45.660,122.222 45.229 C 123.183 44.226,122.998 44.230,121.891 45.236 M119.724 47.255 L 118.824 48.235 119.804 47.334 C 120.343 46.839,120.784 46.398,120.784 46.354 C 120.784 46.154,120.563 46.342,119.724 47.255 M116.797 50.261 C 115.570 51.723,113.958 53.901,114.427 53.464 C 114.873 53.049,118.170 48.889,118.054 48.889 C 117.996 48.889,117.430 49.507,116.797 50.261 M112.924 55.229 C 112.294 55.984,111.986 56.436,112.239 56.234 C 112.748 55.829,114.358 53.856,114.181 53.856 C 114.119 53.856,113.554 54.474,112.924 55.229 M240.392 56.618 C 231.663 57.872,226.295 62.057,226.279 67.620 C 226.269 71.072,228.191 71.241,232.303 68.150 C 238.906 63.186,246.553 63.054,251.552 67.818 C 253.016 69.213,255.142 69.228,255.163 67.843 C 255.168 67.556,255.272 67.161,255.395 66.967 C 255.526 66.760,255.480 66.151,255.283 65.498 C 254.266 62.119,251.888 59.632,247.843 57.718 C 244.297 56.040,244.356 56.049,240.392 56.618 M111.087 57.451 C 109.967 58.700,109.457 59.346,109.592 59.346 C 109.663 59.346,110.218 58.758,110.824 58.039 C 111.990 56.657,112.179 56.233,111.087 57.451 M279.477 61.025 C 280.843 62.452,282.108 63.784,282.288 63.985 C 282.467 64.186,282.614 64.252,282.614 64.132 C 282.614 64.011,281.350 62.679,279.804 61.172 L 276.994 58.431 279.477 61.025 M108.235 61.176 C 107.928 61.608,107.736 61.961,107.808 61.961 C 107.879 61.961,108.190 61.608,108.497 61.176 C 108.804 60.745,108.996 60.392,108.924 60.392 C 108.853 60.392,108.542 60.745,108.235 61.176 M150.850 61.732 C 146.415 62.449,141.961 65.721,141.961 68.262 C 141.961 70.296,143.478 70.364,147.582 68.515 C 153.807 65.710,157.282 65.489,161.598 67.624 C 167.694 70.640,169.412 70.848,169.412 68.569 C 169.412 66.492,167.554 63.693,165.372 62.483 C 163.674 61.542,154.847 61.085,150.850 61.732 M106.958 63.271 C 106.636 63.844,106.427 64.314,106.493 64.314 C 106.670 64.314,107.751 62.435,107.639 62.323 C 107.587 62.271,107.280 62.697,106.958 63.271 M285.243 67.154 C 286.601 68.573,287.824 69.749,287.959 69.769 C 288.095 69.788,287.095 68.643,285.737 67.225 C 284.379 65.806,283.157 64.630,283.021 64.610 C 282.885 64.591,283.885 65.736,285.243 67.154 M103.294 71.529 C 103.144 72.074,103.068 72.567,103.125 72.624 C 103.183 72.682,103.353 72.283,103.503 71.739 C 103.654 71.194,103.730 70.701,103.672 70.644 C 103.615 70.586,103.444 70.985,103.294 71.529 M102.775 73.247 C 102.759 73.486,102.677 73.898,102.595 74.162 C 102.452 74.616,102.460 74.616,102.743 74.175 C 102.907 73.919,102.989 73.507,102.924 73.260 C 102.817 72.855,102.803 72.854,102.775 73.247 M291.137 75.034 C 291.529 75.754,291.891 76.301,291.942 76.250 C 292.054 76.137,290.724 73.725,290.550 73.725 C 290.481 73.725,290.745 74.314,291.137 75.034 M102.124 75.850 C 101.906 76.939,102.117 77.151,102.353 76.078 C 102.452 75.626,102.479 75.202,102.412 75.136 C 102.346 75.069,102.216 75.390,102.124 75.850 M101.581 78.835 C 101.481 79.502,101.452 80.101,101.518 80.167 C 101.583 80.232,101.718 79.740,101.818 79.073 C 101.918 78.406,101.947 77.807,101.881 77.742 C 101.816 77.676,101.681 78.169,101.581 78.835 M294.695 81.691 C 295.154 82.621,295.572 83.339,295.625 83.286 C 295.742 83.169,294.161 80.000,293.986 80.000 C 293.917 80.000,294.236 80.761,294.695 81.691 M100.986 83.922 C 100.986 84.569,101.037 84.833,101.100 84.510 C 101.162 84.186,101.162 83.657,101.100 83.333 C 101.037 83.010,100.986 83.275,100.986 83.922 M100.720 86.667 C 100.722 87.242,100.776 87.446,100.838 87.121 C 100.901 86.796,100.899 86.325,100.833 86.075 C 100.768 85.825,100.717 86.092,100.720 86.667 M234.363 86.863 L 233.595 87.712 234.444 86.945 C 234.912 86.522,235.294 86.140,235.294 86.095 C 235.294 85.893,235.078 86.071,234.363 86.863 M153.663 88.028 C 153.988 88.091,154.459 88.088,154.709 88.023 C 154.959 87.957,154.693 87.906,154.118 87.909 C 153.542 87.912,153.338 87.966,153.663 88.028 M100.482 90.588 C 100.483 91.739,100.529 92.177,100.584 91.562 C 100.639 90.947,100.638 90.006,100.582 89.470 C 100.526 88.935,100.481 89.438,100.482 90.588 M103.601 89.673 C 103.601 90.320,103.652 90.585,103.714 90.261 C 103.776 89.938,103.776 89.408,103.714 89.085 C 103.652 88.761,103.601 89.026,103.601 89.673 M232.709 89.702 C 232.548 90.164,232.462 90.588,232.518 90.644 C 232.574 90.700,232.751 90.368,232.912 89.906 C 233.073 89.444,233.159 89.020,233.103 88.964 C 233.047 88.908,232.870 89.240,232.709 89.702 M156.667 91.373 C 156.670 91.948,156.724 92.152,156.786 91.827 C 156.849 91.502,156.846 91.031,156.781 90.781 C 156.716 90.531,156.664 90.797,156.667 91.373 M232.035 92.484 C 231.941 93.167,231.959 93.983,232.076 94.297 C 232.222 94.691,232.297 94.304,232.319 93.055 C 232.355 90.930,232.272 90.763,232.035 92.484 M103.343 92.941 C 103.345 93.660,103.395 93.923,103.456 93.526 C 103.516 93.128,103.514 92.540,103.452 92.219 C 103.390 91.897,103.341 92.222,103.343 92.941 M100.224 95.556 C 100.223 96.850,100.267 97.412,100.322 96.805 C 100.377 96.199,100.377 95.140,100.323 94.452 C 100.269 93.765,100.224 94.261,100.224 95.556 M149.365 95.686 C 149.365 96.621,149.412 97.003,149.470 96.536 C 149.528 96.069,149.528 95.304,149.470 94.837 C 149.412 94.369,149.365 94.752,149.365 95.686 M232.418 95.336 C 232.418 95.478,232.742 95.880,233.137 96.229 L 233.856 96.863 233.203 96.078 C 232.843 95.647,232.520 95.245,232.484 95.185 C 232.448 95.125,232.418 95.193,232.418 95.336 M236.339 96.013 C 235.954 96.539,235.891 96.721,236.173 96.492 C 236.602 96.144,237.250 95.163,237.052 95.163 C 237.002 95.163,236.681 95.546,236.339 96.013 M154.711 96.536 C 154.139 97.418,153.626 98.468,153.913 98.170 C 154.280 97.789,155.358 95.948,155.215 95.948 C 155.148 95.948,154.921 96.212,154.711 96.536 M300.959 98.170 C 300.955 98.458,301.053 98.928,301.176 99.216 C 301.463 99.882,301.463 99.195,301.176 98.301 C 301.008 97.775,300.966 97.750,300.959 98.170 M301.537 103.529 C 301.537 105.183,301.579 105.859,301.631 105.033 C 301.683 104.206,301.683 102.853,301.631 102.026 C 301.579 101.199,301.537 101.876,301.537 103.529 M196.401 102.484 C 196.401 102.987,196.454 103.193,196.520 102.941 C 196.586 102.690,196.586 102.278,196.520 102.026 C 196.454 101.775,196.401 101.980,196.401 102.484 M228.063 104.183 C 228.064 105.333,228.110 105.771,228.166 105.156 C 228.221 104.542,228.220 103.600,228.164 103.065 C 228.108 102.530,228.063 103.033,228.063 104.183 M100.205 110.196 C 100.207 110.915,100.258 111.178,100.318 110.781 C 100.378 110.383,100.377 109.795,100.315 109.474 C 100.253 109.152,100.204 109.477,100.205 110.196 M301.042 111.724 C 300.940 113.087,300.909 114.360,300.974 114.552 C 301.038 114.745,301.175 113.683,301.279 112.193 C 301.382 110.703,301.412 109.430,301.347 109.364 C 301.281 109.299,301.144 110.361,301.042 111.724 M103.334 110.719 C 103.337 111.294,103.390 111.499,103.453 111.173 C 103.515 110.848,103.513 110.378,103.448 110.128 C 103.382 109.878,103.331 110.144,103.334 110.719 M100.467 113.072 C 100.469 113.791,100.520 114.054,100.580 113.657 C 100.640 113.259,100.638 112.671,100.576 112.349 C 100.514 112.028,100.465 112.353,100.467 113.072 M100.933 117.015 C 100.944 117.435,101.056 118.013,101.183 118.301 C 101.338 118.650,101.363 118.433,101.259 117.647 C 101.076 116.262,100.907 115.934,100.933 117.015 M300.732 118.170 C 300.732 118.961,300.781 119.284,300.841 118.889 C 300.901 118.493,300.901 117.846,300.841 117.451 C 300.781 117.056,300.732 117.379,300.732 118.170 M300.485 121.961 C 300.484 123.255,300.528 123.817,300.583 123.211 C 300.638 122.604,300.639 121.545,300.585 120.858 C 300.531 120.170,300.486 120.667,300.485 121.961 M103.156 126.275 C 103.253 126.634,103.440 127.105,103.574 127.320 C 103.742 127.593,103.762 127.513,103.641 127.059 C 103.545 126.699,103.357 126.229,103.224 126.013 C 103.055 125.741,103.035 125.820,103.156 126.275 M300.037 126.852 C 299.949 127.182,299.888 127.745,299.901 128.105 C 299.916 128.490,300.020 128.282,300.154 127.598 C 300.394 126.374,300.309 125.835,300.037 126.852 M298.854 133.116 C 298.837 133.356,298.756 133.768,298.673 134.031 C 298.530 134.485,298.538 134.486,298.821 134.044 C 298.986 133.788,299.067 133.376,299.002 133.129 C 298.896 132.724,298.881 132.723,298.854 133.116 M105.621 133.804 C 105.621 133.967,105.297 134.276,104.902 134.491 C 104.507 134.706,104.317 134.886,104.481 134.891 C 104.936 134.908,106.039 133.928,105.817 133.704 C 105.709 133.596,105.621 133.641,105.621 133.804 M97.712 137.143 C 96.699 137.693,96.814 137.883,97.843 137.359 C 98.829 136.858,99.003 136.728,98.671 136.742 C 98.539 136.748,98.108 136.928,97.712 137.143 M297.156 139.487 C 297.067 139.721,297.004 140.108,297.016 140.348 C 297.028 140.588,297.142 140.437,297.269 140.013 C 297.515 139.188,297.428 138.780,297.156 139.487 M92.524 140.850 C 91.493 141.934,90.157 143.582,90.882 142.876 C 91.661 142.118,93.916 139.608,93.819 139.608 C 93.757 139.608,93.174 140.167,92.524 140.850 M296.802 141.276 C 296.835 141.546,297.157 141.943,297.516 142.158 L 298.170 142.548 297.613 142.058 C 297.307 141.789,296.986 141.392,296.899 141.176 C 296.789 140.904,296.760 140.934,296.802 141.276 M299.608 143.135 C 299.608 143.314,301.209 144.107,301.328 143.988 C 301.385 143.931,301.021 143.689,300.520 143.450 C 300.018 143.211,299.608 143.069,299.608 143.135 M307.720 147.099 C 308.888 147.881,309.863 148.871,310.623 150.051 C 311.035 150.690,311.373 151.090,311.373 150.940 C 311.373 150.166,308.075 146.667,307.346 146.667 C 307.196 146.667,307.364 146.861,307.720 147.099 M88.450 149.804 C 88.450 150.739,88.497 151.121,88.555 150.654 C 88.613 150.186,88.613 149.422,88.555 148.954 C 88.497 148.487,88.450 148.869,88.450 149.804 M126.844 153.615 C 123.048 157.195,120.893 160.595,119.331 165.469 C 118.982 166.559,118.580 167.796,118.438 168.218 C 118.060 169.338,118.158 169.335,121.261 168.146 C 122.821 167.548,124.235 167.059,124.405 167.059 C 124.574 167.059,124.917 166.947,125.167 166.811 C 126.157 166.271,128.835 165.429,130.196 165.229 C 130.987 165.113,131.803 164.978,132.011 164.928 C 132.486 164.813,132.680 165.646,132.348 166.374 C 131.061 169.190,130.867 169.833,130.858 171.294 L 130.850 172.864 132.320 174.233 C 133.814 175.624,137.132 177.516,138.077 177.516 C 138.363 177.516,138.838 177.645,139.133 177.803 C 139.873 178.199,144.257 178.180,145.509 177.775 C 146.966 177.303,150.678 175.555,151.126 175.129 C 151.334 174.932,151.974 174.423,152.549 173.996 C 153.973 172.941,156.151 170.616,157.272 168.954 C 158.863 166.596,162.826 167.018,162.051 169.462 C 159.758 176.696,162.961 181.419,170.171 181.434 C 172.746 181.440,175.368 178.566,178.165 172.672 C 179.302 170.277,180.329 169.412,182.035 169.412 C 183.531 169.412,183.573 169.486,183.095 171.246 C 181.362 177.614,181.223 176.958,184.837 179.462 C 186.059 180.309,187.914 181.641,188.960 182.423 C 195.538 187.344,200.764 185.147,203.029 176.508 C 203.791 173.601,204.432 172.808,206.013 172.815 C 207.022 172.820,207.211 173.074,207.565 174.902 C 208.546 179.965,210.698 182.737,214.947 184.411 C 218.114 185.659,220.891 185.324,222.021 183.557 C 223.725 180.894,224.278 178.242,223.774 175.163 C 223.060 170.808,223.209 170.174,225.032 169.804 C 226.079 169.592,226.677 170.173,228.703 173.377 C 230.499 176.216,233.703 178.458,237.255 179.363 C 237.686 179.473,238.686 179.735,239.477 179.945 C 240.268 180.155,241.680 180.410,242.614 180.512 C 248.354 181.138,248.211 181.133,249.020 180.716 C 251.102 179.642,251.688 174.698,250.104 171.577 C 247.935 167.305,251.551 166.594,255.276 170.561 C 256.438 171.798,257.477 172.810,257.586 172.810 C 257.694 172.810,258.369 173.222,259.085 173.725 C 259.801 174.229,260.445 174.641,260.515 174.641 C 260.586 174.641,261.263 175.036,262.021 175.518 C 264.422 177.048,268.406 179.085,268.998 179.085 C 272.264 179.085,273.342 174.337,270.829 171.017 C 269.589 169.379,269.585 169.276,270.699 168.039 C 271.929 166.674,272.784 166.714,274.916 168.235 C 275.822 168.882,276.637 169.412,276.726 169.412 C 277.162 169.412,272.983 162.424,271.600 160.841 C 271.187 160.368,270.850 159.809,270.850 159.599 C 270.850 159.143,269.567 159.091,267.429 159.460 C 265.702 159.759,261.125 160.395,256.732 160.947 C 254.935 161.173,251.052 161.452,248.105 161.567 C 239.972 161.884,237.005 162.047,233.856 162.352 C 232.275 162.504,229.216 162.800,227.059 163.008 C 222.071 163.489,209.951 164.024,208.235 163.838 C 207.516 163.761,204.105 163.624,200.654 163.535 C 197.203 163.445,190.673 163.204,186.144 162.998 C 181.614 162.793,177.144 162.610,176.209 162.592 C 175.275 162.574,172.980 162.390,171.111 162.184 C 169.242 161.977,166.712 161.703,165.490 161.573 C 164.268 161.443,162.150 161.154,160.784 160.930 C 159.418 160.706,157.124 160.334,155.686 160.102 C 154.248 159.869,152.190 159.502,151.111 159.285 C 150.033 159.067,148.856 158.839,148.497 158.777 C 145.698 158.295,141.797 157.013,137.977 155.320 C 137.295 155.018,136.648 154.771,136.539 154.770 C 136.255 154.769,133.226 153.200,131.329 152.071 C 130.442 151.543,129.667 151.111,129.607 151.111 C 129.547 151.111,128.303 152.238,126.844 153.615 M88.627 152.048 C 88.627 153.121,91.897 156.128,92.996 156.067 C 93.110 156.061,92.732 155.811,92.157 155.513 C 90.747 154.782,90.250 154.325,89.372 152.955 C 88.963 152.316,88.627 151.908,88.627 152.048 M93.355 156.172 C 93.415 156.224,93.817 156.345,94.248 156.442 C 94.821 156.570,94.927 156.546,94.641 156.352 C 94.287 156.113,93.093 155.946,93.355 156.172 M309.412 157.066 C 308.837 157.602,308.072 158.251,307.712 158.509 C 307.081 158.961,307.088 158.961,307.913 158.514 C 308.657 158.112,310.898 156.067,310.576 156.085 C 310.511 156.089,309.987 156.530,309.412 157.066 M96.340 156.863 C 96.627 156.986,97.039 157.087,97.255 157.087 C 97.502 157.087,97.454 157.004,97.124 156.863 C 96.837 156.739,96.425 156.638,96.209 156.638 C 95.962 156.638,96.010 156.721,96.340 156.863 M98.322 157.218 C 98.382 157.270,98.784 157.391,99.216 157.488 C 99.788 157.616,99.894 157.591,99.608 157.398 C 99.255 157.159,98.060 156.992,98.322 157.218 M99.185 158.758 C 98.285 160.285,98.226 160.415,98.684 159.869 C 99.215 159.237,99.673 158.431,99.502 158.431 C 99.433 158.431,99.291 158.578,99.185 158.758 M180.327 160.189 C 180.794 160.247,181.559 160.247,182.026 160.189 C 182.493 160.131,182.111 160.084,181.176 160.084 C 180.242 160.084,179.859 160.131,180.327 160.189 M302.876 160.261 C 302.210 160.548,302.897 160.548,303.791 160.261 C 304.316 160.093,304.342 160.051,303.922 160.044 C 303.634 160.040,303.163 160.138,302.876 160.261 M94.917 171.917 C 94.925 173.199,95.024 174.719,95.137 175.294 C 95.259 175.912,95.292 175.003,95.218 173.072 C 95.072 169.244,94.895 168.566,94.917 171.917 M304.683 174.902 C 304.683 177.418,304.722 178.448,304.770 177.190 C 304.818 175.931,304.818 173.873,304.770 172.614 C 304.722 171.356,304.683 172.386,304.683 174.902 M156.295 174.310 C 155.816 174.703,155.366 175.088,155.294 175.167 C 151.139 179.698,141.434 181.803,135.571 179.444 C 134.685 179.088,133.919 178.918,133.789 179.048 C 133.435 179.401,133.087 183.784,133.079 187.974 L 133.072 191.765 133.987 192.495 C 135.085 193.371,135.110 193.610,134.208 194.551 L 133.515 195.275 133.946 197.021 C 134.486 199.209,134.625 199.370,136.146 199.559 C 143.284 200.448,146.239 200.787,149.020 201.036 C 153.012 201.394,154.729 201.545,156.601 201.701 C 159.058 201.907,163.740 202.386,164.837 202.544 C 166.329 202.759,203.242 202.761,206.536 202.547 C 208.941 202.390,211.370 202.243,220.523 201.703 C 221.673 201.635,223.085 201.525,223.660 201.459 C 224.235 201.393,230.059 201.217,236.601 201.068 C 243.144 200.919,249.497 200.675,250.719 200.525 C 251.941 200.375,254.000 200.138,255.294 199.998 C 256.588 199.858,258.412 199.626,259.346 199.481 C 260.281 199.337,261.810 199.108,262.745 198.972 C 265.264 198.608,267.546 198.213,270.327 197.660 C 271.693 197.388,273.634 197.018,274.641 196.838 C 277.427 196.339,277.737 196.111,278.662 193.891 C 280.986 188.308,281.606 182.033,280.384 176.471 C 279.870 174.132,280.208 174.467,278.139 174.247 L 276.408 174.064 276.241 174.941 C 275.286 179.944,270.675 183.226,266.380 181.958 C 263.388 181.075,257.953 178.151,256.078 176.415 C 255.024 175.439,254.982 175.462,254.648 177.190 C 254.068 180.189,252.830 182.046,250.663 183.166 C 249.700 183.664,245.860 183.746,245.001 183.286 C 244.714 183.132,244.037 183.007,243.497 183.007 C 239.681 183.007,232.880 180.852,228.758 178.338 C 227.630 177.650,227.190 177.630,227.190 178.268 C 227.190 180.410,225.674 184.245,224.377 185.384 C 219.602 189.576,211.786 187.983,207.190 181.879 C 205.654 179.841,205.662 179.844,205.153 181.114 C 201.187 191.028,185.518 190.329,180.109 179.997 C 179.039 177.953,179.311 177.964,177.252 179.881 C 172.160 184.622,169.154 185.283,163.936 182.809 C 161.293 181.556,159.598 179.347,158.419 175.622 C 157.708 173.377,157.549 173.279,156.295 174.310 M161.711 183.648 C 162.532 184.469,162.518 184.683,161.603 185.335 C 159.046 187.156,156.574 185.801,158.833 183.818 C 159.946 182.840,160.850 182.787,161.711 183.648 M261.864 184.198 C 262.508 185.182,261.696 186.241,260.213 186.353 C 258.900 186.451,258.356 185.920,258.718 184.892 C 259.200 183.520,261.140 183.093,261.864 184.198 M148.153 184.359 C 149.025 185.178,148.909 185.555,147.586 186.197 L 146.414 186.766 145.756 186.148 C 144.916 185.358,144.927 185.007,145.817 184.344 C 146.747 183.650,147.403 183.655,148.153 184.359 M97.778 184.150 C 97.778 184.432,98.816 186.405,98.965 186.405 C 99.037 186.405,98.843 185.905,98.535 185.294 C 97.929 184.092,97.778 183.864,97.778 184.150 M302.536 185.757 C 302.224 186.401,302.022 186.928,302.090 186.928 C 302.267 186.928,303.323 184.805,303.205 184.686 C 303.150 184.631,302.849 185.113,302.536 185.757 M238.995 187.320 C 239.547 187.976,239.176 188.479,237.758 188.991 C 236.200 189.555,234.692 188.317,235.780 187.368 C 237.240 186.094,237.954 186.084,238.995 187.320 M274.749 188.866 C 275.745 189.894,275.673 190.138,274.173 190.826 C 271.957 191.841,270.761 189.945,272.744 188.562 C 273.807 187.821,273.724 187.808,274.749 188.866 M100.785 189.018 C 101.216 189.521,101.598 189.982,101.634 190.042 C 101.670 190.103,101.756 190.095,101.826 190.026 C 101.896 189.956,101.514 189.495,100.977 189.002 L 100.001 188.105 100.785 189.018 M183.186 189.327 C 184.020 190.110,183.951 190.402,182.775 191.063 C 181.471 191.796,181.145 191.782,180.372 190.959 C 179.656 190.197,179.843 189.913,181.569 189.133 C 182.577 188.678,182.483 188.666,183.186 189.327 M210.600 189.661 C 211.500 190.561,211.403 190.990,210.191 191.475 C 208.807 192.028,208.182 192.006,207.852 191.390 C 207.429 190.598,207.514 190.391,208.557 189.683 C 209.757 188.868,209.806 188.867,210.600 189.661 M299.068 190.915 C 298.438 191.670,298.130 192.122,298.383 191.921 C 298.892 191.515,300.502 189.542,300.324 189.542 C 300.263 189.542,299.697 190.160,299.068 190.915 M102.745 190.936 C 102.745 191.008,103.216 191.440,103.791 191.895 C 104.366 192.351,104.837 192.665,104.837 192.593 C 104.837 192.521,104.366 192.090,103.791 191.634 C 103.216 191.178,102.745 190.865,102.745 190.936 M252.025 193.277 C 252.024 193.845,250.654 195.556,250.201 195.556 C 249.622 195.556,248.831 193.979,249.191 193.543 C 250.337 192.156,252.028 191.997,252.025 193.277 M105.406 193.072 C 105.726 193.453,105.776 193.720,105.589 194.052 C 105.449 194.304,105.394 194.510,105.468 194.510 C 106.016 194.510,106.072 193.483,105.547 193.039 C 104.973 192.554,104.972 192.554,105.406 193.072 M153.780 193.648 C 155.315 195.147,154.924 196.819,152.935 197.256 C 150.895 197.704,150.337 195.515,151.966 193.449 C 152.702 192.515,152.609 192.505,153.780 193.648 M228.138 193.620 C 228.677 193.765,229.281 194.704,229.281 195.395 C 229.281 195.581,228.781 195.882,228.170 196.064 C 227.559 196.246,226.813 196.489,226.512 196.604 C 225.570 196.965,225.280 196.560,225.608 195.341 C 226.009 193.855,226.858 193.277,228.138 193.620 M295.486 194.517 C 295.016 194.945,294.730 195.294,294.849 195.294 C 294.968 195.294,295.404 194.941,295.817 194.510 C 296.778 193.507,296.592 193.511,295.486 194.517 M194.032 195.465 C 194.699 196.069,194.636 196.313,193.475 197.617 C 192.347 198.884,191.893 198.906,191.280 197.721 C 190.846 196.882,190.998 196.566,192.288 195.623 C 193.239 194.927,193.419 194.911,194.032 195.465 M172.529 196.094 C 173.804 197.017,173.739 197.222,171.868 198.184 L 170.656 198.807 170.035 198.031 C 169.229 197.023,169.250 196.784,170.216 195.971 C 171.218 195.128,171.194 195.127,172.529 196.094 M103.707 197.528 C 103.093 198.816,103.179 199.036,103.821 197.818 C 104.113 197.266,104.305 196.767,104.249 196.711 C 104.192 196.654,103.948 197.022,103.707 197.528 M293.355 199.608 C 293.355 199.752,293.581 200.281,293.856 200.784 C 294.132 201.288,294.357 201.582,294.357 201.438 C 294.357 201.294,294.132 200.765,293.856 200.261 C 293.581 199.758,293.355 199.464,293.355 199.608 M101.569 203.399 C 101.469 203.851,101.443 204.275,101.509 204.341 C 101.576 204.408,101.706 204.087,101.797 203.627 C 102.015 202.538,101.804 202.326,101.569 203.399 M138.235 203.067 C 138.846 203.122,139.846 203.122,140.458 203.067 C 141.069 203.012,140.569 202.967,139.346 202.967 C 138.124 202.967,137.624 203.012,138.235 203.067 M248.497 203.582 C 251.007 203.688,251.538 203.824,250.973 204.217 C 250.637 204.451,250.638 204.471,250.980 204.377 C 252.369 203.998,251.234 203.528,248.889 203.511 C 246.676 203.495,246.634 203.503,248.497 203.582 M230.000 204.629 C 230.324 204.691,230.853 204.691,231.176 204.629 C 231.500 204.567,231.235 204.516,230.588 204.516 C 229.941 204.516,229.676 204.567,230.000 204.629 M295.357 206.928 C 295.434 208.222,295.540 209.330,295.592 209.390 C 295.775 209.601,295.653 206.654,295.437 205.621 C 295.287 204.910,295.262 205.328,295.357 206.928 M208.954 205.416 C 209.350 205.476,209.997 205.476,210.392 205.416 C 210.788 205.356,210.464 205.307,209.673 205.307 C 208.882 205.307,208.559 205.356,208.954 205.416 M154.888 205.774 C 154.791 205.931,154.850 206.195,155.019 206.363 C 155.252 206.594,155.285 206.562,155.158 206.227 C 155.026 205.880,155.174 205.765,155.861 205.681 L 156.732 205.574 155.898 205.532 C 155.439 205.509,154.984 205.618,154.888 205.774 M205.689 205.675 C 206.015 205.738,206.485 205.735,206.735 205.670 C 206.985 205.604,206.719 205.553,206.144 205.556 C 205.569 205.559,205.364 205.613,205.689 205.675 M101.255 207.059 C 101.255 207.850,101.304 208.173,101.364 207.778 C 101.424 207.382,101.424 206.735,101.364 206.340 C 101.304 205.944,101.255 206.268,101.255 207.059 M169.219 206.462 C 169.617 206.522,170.205 206.521,170.526 206.459 C 170.848 206.396,170.523 206.347,169.804 206.349 C 169.085 206.351,168.822 206.402,169.219 206.462 M195.229 206.459 C 195.552 206.521,196.082 206.521,196.405 206.459 C 196.729 206.397,196.464 206.346,195.817 206.346 C 195.170 206.346,194.905 206.397,195.229 206.459 M177.717 206.725 C 178.187 206.784,178.893 206.782,179.286 206.723 C 179.679 206.663,179.294 206.615,178.431 206.617 C 177.569 206.618,177.247 206.667,177.717 206.725 M187.778 206.723 C 188.173 206.783,188.820 206.783,189.216 206.723 C 189.611 206.663,189.288 206.614,188.497 206.614 C 187.706 206.614,187.382 206.663,187.778 206.723 M101.482 209.804 C 101.478 210.092,101.576 210.562,101.699 210.850 C 101.986 211.516,101.986 210.829,101.699 209.935 C 101.531 209.409,101.489 209.384,101.482 209.804 M295.224 210.458 C 295.224 210.961,295.278 211.167,295.344 210.915 C 295.409 210.663,295.409 210.252,295.344 210.000 C 295.278 209.748,295.224 209.954,295.224 210.458 M294.790 212.437 C 294.694 212.820,294.665 213.184,294.727 213.246 C 294.789 213.307,294.918 213.044,295.014 212.661 C 295.110 212.278,295.138 211.914,295.077 211.852 C 295.015 211.791,294.886 212.054,294.790 212.437 M109.935 220.392 C 110.496 220.967,111.015 221.438,111.087 221.438 C 111.158 221.438,110.758 220.967,110.196 220.392 C 109.634 219.817,109.116 219.346,109.044 219.346 C 108.972 219.346,109.373 219.817,109.935 220.392 M290.457 222.026 C 290.072 222.552,290.009 222.735,290.291 222.505 C 290.720 222.157,291.368 221.176,291.169 221.176 C 291.120 221.176,290.799 221.559,290.457 222.026 M108.565 223.679 C 109.394 224.543,110.453 225.457,110.918 225.709 C 111.733 226.149,111.740 226.149,111.111 225.702 C 110.752 225.447,109.693 224.534,108.758 223.673 L 107.059 222.107 108.565 223.679 M287.520 225.497 C 286.983 225.997,286.636 226.405,286.750 226.405 C 286.863 226.405,287.355 225.993,287.843 225.490 C 288.981 224.316,288.786 224.320,287.520 225.497 M285.098 227.610 L 284.052 228.546 285.163 227.715 C 286.120 227.000,286.465 226.655,286.209 226.671 C 286.173 226.673,285.673 227.096,285.098 227.610 M280.000 230.719 C 279.353 231.065,278.916 231.354,279.030 231.361 C 279.308 231.377,281.307 230.349,281.307 230.191 C 281.307 230.018,281.318 230.013,280.000 230.719 M146.604 232.080 C 146.930 232.143,147.400 232.140,147.650 232.075 C 147.900 232.010,147.634 231.958,147.059 231.961 C 146.484 231.964,146.279 232.018,146.604 232.080 M150.530 232.349 C 151.145 232.404,152.086 232.403,152.621 232.347 C 153.157 232.291,152.654 232.246,151.503 232.246 C 150.353 232.247,149.915 232.293,150.530 232.349 M129.150 232.636 C 129.366 232.769,129.837 232.957,130.196 233.053 C 130.650 233.174,130.730 233.154,130.458 232.985 C 130.242 232.852,129.771 232.664,129.412 232.568 C 128.958 232.447,128.878 232.467,129.150 232.636 M162.157 233.121 C 162.408 233.187,162.820 233.187,163.072 233.121 C 163.324 233.056,163.118 233.002,162.614 233.002 C 162.111 233.002,161.905 233.056,162.157 233.121 M174.057 233.392 C 174.527 233.450,175.233 233.449,175.626 233.389 C 176.018 233.330,175.634 233.282,174.771 233.284 C 173.908 233.285,173.587 233.334,174.057 233.392 M180.857 233.394 C 181.471 233.450,182.413 233.449,182.948 233.393 C 183.484 233.336,182.980 233.291,181.830 233.292 C 180.680 233.293,180.242 233.339,180.857 233.394 M204.641 233.395 C 205.395 233.448,206.631 233.448,207.386 233.395 C 208.141 233.343,207.523 233.299,206.013 233.299 C 204.503 233.299,203.886 233.343,204.641 233.395 M227.650 233.649 C 227.975 233.711,228.446 233.709,228.696 233.644 C 228.946 233.578,228.680 233.527,228.105 233.530 C 227.529 233.533,227.325 233.586,227.650 233.649 M132.832 233.819 C 132.892 233.871,133.294 233.992,133.725 234.089 C 134.298 234.217,134.404 234.193,134.118 233.999 C 133.765 233.760,132.570 233.593,132.832 233.819 M137.647 235.020 C 138.149 235.248,139.549 235.396,139.325 235.198 C 139.265 235.145,138.745 235.030,138.170 234.943 C 137.441 234.832,137.283 234.855,137.647 235.020 M266.536 235.696 C 265.501 236.054,265.499 236.056,266.405 235.907 C 266.908 235.825,267.497 235.656,267.712 235.534 C 268.288 235.205,267.732 235.282,266.536 235.696 M143.551 236.173 C 143.611 236.225,144.190 236.337,144.837 236.423 C 145.622 236.527,145.839 236.501,145.490 236.347 C 144.991 236.126,143.324 235.976,143.551 236.173 M147.320 236.863 C 148.426 237.144,149.375 237.144,148.497 236.863 C 148.137 236.748,147.549 236.656,147.190 236.658 C 146.602 236.663,146.616 236.683,147.320 236.863 M260.915 236.863 C 260.036 237.144,260.986 237.144,262.092 236.863 C 262.796 236.683,262.809 236.663,262.222 236.658 C 261.863 236.656,261.275 236.748,260.915 236.863 M150.458 237.386 C 150.889 237.495,151.536 237.585,151.895 237.585 C 152.478 237.585,152.464 237.564,151.765 237.386 C 151.333 237.276,150.686 237.186,150.327 237.186 C 149.744 237.186,149.758 237.208,150.458 237.386 M257.843 237.304 C 258.095 237.370,258.507 237.370,258.758 237.304 C 259.010 237.239,258.804 237.185,258.301 237.185 C 257.797 237.185,257.592 237.239,257.843 237.304 M254.841 237.575 C 255.311 237.633,256.017 237.632,256.410 237.572 C 256.803 237.513,256.418 237.465,255.556 237.467 C 254.693 237.468,254.371 237.517,254.841 237.575 M153.725 237.908 C 154.085 238.024,154.673 238.116,155.033 238.113 C 155.620 238.109,155.606 238.088,154.902 237.908 C 153.796 237.627,152.847 237.627,153.725 237.908 M248.039 237.832 C 248.363 237.894,248.892 237.894,249.216 237.832 C 249.539 237.769,249.275 237.718,248.627 237.718 C 247.980 237.718,247.716 237.769,248.039 237.832 M245.951 238.093 C 246.276 238.156,246.747 238.154,246.997 238.088 C 247.246 238.023,246.980 237.972,246.405 237.974 C 245.830 237.977,245.626 238.031,245.951 238.093 M158.108 238.616 C 158.433 238.679,158.903 238.676,159.153 238.611 C 159.403 238.546,159.137 238.494,158.562 238.497 C 157.987 238.500,157.782 238.554,158.108 238.616 M162.026 239.139 C 162.350 239.201,162.879 239.201,163.203 239.139 C 163.526 239.076,163.261 239.025,162.614 239.025 C 161.967 239.025,161.703 239.076,162.026 239.139 M169.987 239.672 C 171.238 239.719,173.355 239.720,174.693 239.672 C 176.030 239.625,175.007 239.585,172.418 239.585 C 169.830 239.585,168.736 239.624,169.987 239.672 M177.974 239.928 C 178.441 239.986,179.206 239.986,179.673 239.928 C 180.141 239.870,179.758 239.822,178.824 239.822 C 177.889 239.822,177.507 239.870,177.974 239.928 M183.856 240.187 C 184.252 240.247,184.899 240.247,185.294 240.187 C 185.690 240.127,185.366 240.078,184.575 240.078 C 183.784 240.078,183.461 240.127,183.856 240.187 M230.458 240.261 L 229.412 240.449 230.327 240.471 C 230.830 240.483,231.712 240.395,232.288 240.276 L 233.333 240.060 232.418 240.067 C 231.915 240.071,231.033 240.158,230.458 240.261 M186.867 240.451 C 187.337 240.509,188.043 240.508,188.436 240.448 C 188.829 240.389,188.444 240.341,187.582 240.342 C 186.719 240.344,186.398 240.393,186.867 240.451 M193.148 240.717 C 194.052 240.768,195.464 240.767,196.285 240.716 C 197.106 240.664,196.366 240.622,194.641 240.623 C 192.915 240.623,192.243 240.666,193.148 240.717 M225.817 240.707 C 226.141 240.770,226.670 240.770,226.993 240.707 C 227.317 240.645,227.052 240.594,226.405 240.594 C 225.758 240.594,225.493 240.645,225.817 240.707 M211.324 240.980 C 213.741 241.023,217.624 241.023,219.951 240.980 C 222.279 240.937,220.301 240.901,215.556 240.901 C 210.810 240.901,208.906 240.937,211.324 240.980 " stroke="none" fill="#9c7174" fill-rule="evenodd"></path></g></svg>